<?xml version="1.0" standalone="no"?>
<!DOCTYPE svg PUBLIC "-//W3C//DTD SVG 1.1//EN" "http://www.w3.org/Graphics/SVG/1.1/DTD/svg11.dtd" >
<svg>
<metadata>
Created by FontForge 20120731 at Sat Jun 29 13:13:06 2019
 By www
Copyright 1990-1999 as an unpublished work by Bitstream Inc.  All rights reserved.  Confidential.
</metadata>
<defs>
<font id="FuturaBT-Bold" horiz-adv-x="500" >
  <font-face 
    font-family="Futura"
    font-weight="700"
    font-stretch="normal"
    units-per-em="1000"
    panose-1="0 0 0 0 0 0 0 0 0 0"
    ascent="800"
    descent="-200"
    x-height="493"
    cap-height="715"
    bbox="-167 -237 1303 963"
    underline-thickness="133"
    underline-position="-48"
    stemh="145"
    stemv="166"
    unicode-range="U+0020-FB02"
  />
<missing-glyph horiz-adv-x="313" 
 />
    <glyph glyph-name=".notdef" horiz-adv-x="313" 
 />
    <glyph glyph-name="space" unicode=" " horiz-adv-x="313" 
 />
    <glyph glyph-name="exclam" unicode="!" horiz-adv-x="343" 
d="M73 80c0 54 42 99 98 99c55 0 99 -44 99 -99c0 -56 -44 -99 -99 -99s-98 44 -98 99zM81 238v510h181v-510h-181z" />
    <glyph glyph-name="quotedbl" unicode="&#x22;" horiz-adv-x="348" 
d="M37 702h107v-274h-107v274zM203 702h109v-274h-109v274z" />
    <glyph glyph-name="numbersign" unicode="#" horiz-adv-x="769" 
d="M334 716h122l-68 -193h115l69 193h122l-68 -193h132l-42 -112h-131l-39 -112h135l-41 -113h-134l-69 -192h-122l68 192h-115l-69 -192h-122l68 192h-134l42 113h132l40 112h-138l42 112h136zM345 411l-40 -113h120l40 113h-120z" />
    <glyph glyph-name="dollar" unicode="$" horiz-adv-x="625" 
d="M116 232c56 -65 113 -97 174 -97c51 0 85 33 85 74c0 56 -36 72 -113 92c-134 36 -198 86 -198 199c0 128 84 214 231 228v68h63v-67c60 -7 113 -27 165 -62l-62 -139c-45 38 -93 56 -137 56c-47 0 -78 -25 -78 -59c0 -51 48 -61 114 -79c126 -34 196 -81 196 -212
c0 -134 -88 -233 -226 -246v-119h-63v117c-95 2 -167 34 -239 103z" />
    <glyph glyph-name="percent" unicode="%" horiz-adv-x="904" 
d="M192 -19l429 741h92l-432 -741h-89zM888 179c0 -119 -70 -198 -183 -198s-184 79 -184 198s71 197 184 197s183 -78 183 -197zM705 56c46 0 62 42 62 123c0 80 -15 122 -62 122s-62 -42 -62 -122s15 -123 62 -123zM392 525c0 -119 -71 -197 -184 -197s-184 78 -184 197
s71 197 184 197s184 -78 184 -197zM208 403c46 0 62 41 62 122c0 80 -15 122 -62 122s-62 -42 -62 -122s15 -122 62 -122z" />
    <glyph glyph-name="ampersand" unicode="&#x26;" horiz-adv-x="806" 
d="M358 439l23 19c33 27 50 55 50 80c0 34 -24 58 -61 58c-41 0 -66 -24 -66 -63c0 -14 10 -41 26 -60zM408 170l-115 126c-43 -38 -65 -69 -65 -103c0 -41 32 -74 76 -74c33 0 66 17 104 51zM569 0l-63 73c-69 -64 -141 -92 -234 -92c-129 0 -216 86 -216 199
c0 93 53 156 166 216c-44 51 -66 99 -66 147c0 92 81 168 198 168c135 0 210 -72 210 -176c0 -69 -40 -128 -122 -180l84 -88c37 31 70 64 100 99l102 -105c-32 -39 -65 -73 -98 -101l155 -160h-216z" />
    <glyph glyph-name="quoteright" unicode="&#x2019;" horiz-adv-x="312" 
d="M117 715h182l-151 -306h-135z" />
    <glyph glyph-name="parenleft" unicode="(" horiz-adv-x="363" 
d="M334 -155l-107 -74c-120 145 -176 298 -176 482s56 338 176 483l111 -72c-103 -124 -141 -252 -141 -411c0 -158 42 -288 137 -408z" />
    <glyph glyph-name="parenright" unicode=")" horiz-adv-x="363" 
d="M30 -155c95 120 137 250 137 408c0 159 -39 287 -142 411l112 72c120 -145 175 -299 175 -483s-55 -337 -175 -482z" />
    <glyph glyph-name="asterisk" unicode="*" horiz-adv-x="521" 
d="M293 590l100 78l49 -87l-117 -47l118 -48l-50 -86l-100 78l17 -126h-99l16 126l-99 -78l-50 86l119 48l-119 47l50 86l100 -77l-18 125h100z" />
    <glyph glyph-name="plus" unicode="+" horiz-adv-x="833" 
d="M359 596h116v-241h234v-113h-234v-242h-116v242h-235v113h235v241z" />
    <glyph glyph-name="comma" unicode="," horiz-adv-x="312" 
d="M117 162h182l-151 -306h-135z" />
    <glyph glyph-name="hyphen" unicode="-" horiz-adv-x="456" 
d="M62 166v159h332v-159h-332z" />
    <glyph glyph-name="period" unicode="." horiz-adv-x="312" 
d="M58 80c0 54 42 99 98 99c55 0 99 -44 99 -99c0 -56 -44 -99 -99 -99s-98 44 -98 99z" />
    <glyph glyph-name="slash" unicode="/" horiz-adv-x="458" 
d="M0 -93l350 824h108l-349 -824h-109z" />
    <glyph glyph-name="zero" unicode="0" horiz-adv-x="625" 
d="M222 352c0 -151 26 -225 91 -225s90 75 90 225c0 151 -26 225 -90 225c-66 0 -91 -73 -91 -225zM583 345c0 -229 -105 -364 -270 -364s-271 136 -271 371c0 234 106 370 271 370c168 0 270 -134 270 -377z" />
    <glyph glyph-name="one" unicode="1" horiz-adv-x="625" 
d="M240 0v546h-153l84 162h247v-708h-178z" />
    <glyph glyph-name="two" unicode="2" horiz-adv-x="625" 
d="M565 0h-546l321 380c38 45 57 82 57 115c0 50 -34 85 -86 85c-60 0 -95 -40 -95 -114v-9h-172v5c0 162 103 261 265 261c166 0 263 -96 263 -227c0 -75 -35 -133 -97 -202l-129 -142h219v-152z" />
    <glyph glyph-name="three" unicode="3" horiz-adv-x="625" 
d="M41 237h181v-12c0 -62 30 -95 87 -95c60 0 93 32 93 90c0 67 -33 96 -106 96c-7 0 -14 0 -22 -1v115h10c66 0 102 30 102 84c0 44 -34 74 -79 74c-49 0 -79 -28 -79 -77h-173c3 132 96 211 261 211c150 0 235 -74 235 -184c0 -72 -40 -125 -113 -147
c90 -15 141 -81 141 -176c0 -139 -109 -234 -267 -234c-166 0 -271 96 -271 246v10z" />
    <glyph glyph-name="four" unicode="4" horiz-adv-x="625" 
d="M352 0v160h-325v141l266 410h222v-410h79v-141h-79v-160h-163zM352 301v208c0 26 0 53 5 81c-19 -44 -38 -72 -49 -89l-131 -200h175z" />
    <glyph glyph-name="five" unicode="5" horiz-adv-x="625" 
d="M534 708v-146h-271l-14 -92c31 6 60 10 88 10c145 0 235 -93 235 -242c0 -156 -108 -257 -293 -257c-89 0 -167 22 -220 57l13 173l15 -3c34 -52 97 -85 165 -85c91 0 142 47 142 124c0 74 -58 129 -144 129c-57 0 -103 -19 -140 -58l-24 14l59 376h389z" />
    <glyph glyph-name="six" unicode="6" horiz-adv-x="625" 
d="M304 456c25 7 50 11 75 11c117 0 210 -92 210 -226c0 -153 -104 -260 -274 -260c-171 0 -271 106 -271 259c0 110 57 201 128 313l100 155h199zM313 342c-66 0 -108 -42 -108 -110s42 -109 108 -109s108 41 108 109s-42 110 -108 110z" />
    <glyph glyph-name="seven" unicode="7" horiz-adv-x="625" 
d="M95 0l269 548h-302v160h546v-34l-311 -674h-202z" />
    <glyph glyph-name="eight" unicode="8" horiz-adv-x="625" 
d="M438 382c93 -17 147 -85 147 -185c0 -132 -97 -216 -273 -216s-272 84 -272 216c0 100 54 168 147 185c-75 17 -118 71 -118 147c0 118 86 193 243 193s244 -75 244 -193c0 -76 -43 -130 -118 -147zM312 124c61 0 98 36 98 95s-37 94 -98 94s-98 -36 -98 -94
s38 -95 98 -95zM312 440c52 0 85 31 85 82s-32 81 -85 81c-52 0 -84 -31 -84 -81c0 -51 33 -82 84 -82z" />
    <glyph glyph-name="nine" unicode="9" horiz-adv-x="625" 
d="M327 248c-25 -7 -50 -11 -75 -11c-117 0 -210 91 -210 225c0 153 103 261 273 261c171 0 271 -106 271 -259c0 -102 -50 -195 -128 -313l-99 -151h-199zM318 362c66 0 108 41 108 109s-42 110 -108 110s-108 -42 -108 -110s42 -109 108 -109z" />
    <glyph glyph-name="colon" unicode=":" horiz-adv-x="343" 
d="M73 80c0 54 42 98 98 98c55 0 99 -43 99 -98c0 -56 -44 -99 -99 -99s-98 44 -98 99zM73 390c0 54 42 98 98 98c55 0 99 -43 99 -98c0 -56 -44 -99 -99 -99s-98 44 -98 99z" />
    <glyph glyph-name="semicolon" unicode=";" horiz-adv-x="343" 
d="M130 162h182l-151 -306h-135zM119 390c0 54 43 98 99 98c55 0 98 -43 98 -98c0 -56 -43 -99 -98 -99s-99 44 -99 99z" />
    <glyph glyph-name="less" unicode="&#x3c;" horiz-adv-x="833" 
d="M704 593v-124l-417 -171l417 -170v-124l-575 237v114z" />
    <glyph glyph-name="equal" unicode="=" horiz-adv-x="833" 
d="M124 464h585v-113h-585v113zM124 245h585v-112h-585v112z" />
    <glyph glyph-name="greater" unicode="&#x3e;" horiz-adv-x="833" 
d="M129 593l575 -238v-114l-575 -237v124l417 170l-417 171v124z" />
    <glyph glyph-name="question" unicode="?" horiz-adv-x="605" 
d="M384 242h-168v202h52c74 0 113 31 113 87c0 45 -35 80 -77 80c-44 0 -73 -25 -75 -72h-167v4c0 124 97 207 250 207c139 0 230 -89 230 -218c0 -108 -64 -184 -158 -186v-104zM195 80c0 54 43 99 99 99c55 0 98 -44 98 -99c0 -56 -43 -99 -98 -99s-99 44 -99 99z" />
    <glyph glyph-name="at" unicode="@" horiz-adv-x="1000" 
d="M585 340c-6 50 -34 76 -78 76c-66 0 -127 -90 -127 -199c0 -55 24 -85 65 -85c53 0 99 40 115 106zM567 128c-37 -54 -81 -77 -144 -77c-106 0 -162 57 -162 168c0 160 107 277 240 277c50 0 87 -20 112 -60l25 45h101l-75 -298c-1 -6 -2 -11 -2 -16c0 -19 10 -29 31 -29
c88 0 168 108 168 234c0 153 -125 264 -316 264c-97 0 -179 -24 -246 -71c-101 -72 -158 -183 -158 -308c0 -197 143 -323 365 -323c106 0 207 31 291 91l47 -66c-101 -76 -214 -114 -338 -114c-127 0 -233 33 -314 95c-102 79 -152 182 -152 314c0 110 35 210 102 292
c96 118 236 182 404 182c114 0 214 -33 283 -87c88 -69 132 -156 132 -268c0 -109 -44 -202 -125 -267c-46 -37 -103 -56 -161 -56c-69 0 -105 26 -108 78z" />
    <glyph glyph-name="A" unicode="A" horiz-adv-x="722" 
d="M-8 0l247 715h244l247 -715h-194l-36 128h-277l-37 -128h-194zM265 267h194l-73 236c-3 11 -11 43 -24 96c-13 -53 -22 -85 -25 -96z" />
    <glyph glyph-name="B" unicode="B" horiz-adv-x="678" 
d="M257 146h68c83 0 127 16 127 75c0 68 -40 81 -124 81h-71v-156zM76 0v715h217c88 0 157 -1 211 -25c66 -29 101 -83 101 -154c0 -82 -39 -126 -130 -151c102 -8 162 -75 162 -181c0 -76 -33 -136 -93 -168c-64 -34 -149 -36 -266 -36h-202zM257 429h39
c82 0 126 12 126 71c0 64 -44 73 -123 73h-42v-144z" />
    <glyph glyph-name="C" unicode="C" horiz-adv-x="628" 
d="M594 687v-213c-52 58 -102 86 -165 86c-113 0 -188 -86 -188 -207c0 -110 74 -199 188 -199c63 0 113 28 165 86v-213c-62 -30 -121 -45 -185 -45c-211 0 -363 159 -363 375s152 375 363 375c64 0 123 -15 185 -45z" />
    <glyph glyph-name="D" unicode="D" horiz-adv-x="766" 
d="M269 160h33c149 0 220 57 220 197c0 142 -73 198 -220 198h-33v-395zM76 0v715h172c133 0 240 -2 334 -68c90 -63 138 -162 138 -290c0 -127 -48 -226 -138 -290c-89 -63 -188 -67 -307 -67h-199z" />
    <glyph glyph-name="E" unicode="E" horiz-adv-x="567" 
d="M76 0v715h438v-157h-248v-124h234v-153h-234v-121h248v-160h-438z" />
    <glyph glyph-name="F" unicode="F" horiz-adv-x="544" 
d="M76 0v715h438v-157h-248v-124h234v-153h-234v-281h-190z" />
    <glyph glyph-name="G" unicode="G" horiz-adv-x="843" 
d="M416 263v150h383c1 -15 1 -29 1 -43c0 -247 -140 -387 -372 -387c-114 0 -203 33 -275 106c-68 69 -107 167 -107 268c0 217 162 374 382 374c139 0 248 -56 322 -165l-169 -81c-40 55 -90 82 -153 82c-114 0 -188 -80 -188 -218c0 -137 73 -219 188 -219
c101 0 172 56 182 133h-194z" />
    <glyph glyph-name="H" unicode="H" horiz-adv-x="802" 
d="M76 0v715h195v-278h260v278h195v-715h-195v291h-260v-291h-195z" />
    <glyph glyph-name="I" unicode="I" horiz-adv-x="359" 
d="M81 0v715h197v-715h-197z" />
    <glyph glyph-name="J" unicode="J" horiz-adv-x="479" 
d="M217 715h194v-463c0 -66 -3 -122 -31 -171c-36 -64 -100 -100 -182 -100c-89 0 -160 38 -210 114l119 108c6 -43 29 -66 61 -66c48 0 49 64 49 185v393z" />
    <glyph glyph-name="K" unicode="K" horiz-adv-x="725" 
d="M76 0v715h193v-325l226 325h227l-264 -349l287 -366h-243l-233 321v-321h-193z" />
    <glyph glyph-name="L" unicode="L" horiz-adv-x="532" 
d="M76 0v715h195v-548h242v-167h-437z" />
    <glyph glyph-name="M" unicode="M" horiz-adv-x="925" 
d="M896 0h-182l-42 309c-6 43 -11 96 -15 160c-10 -63 -25 -106 -33 -134l-97 -335h-130l-97 335c-8 28 -23 71 -33 134c-4 -64 -10 -117 -16 -160l-42 -309h-181l110 715h193l108 -369c7 -23 17 -54 23 -97c5 40 14 72 22 98l109 368h193z" />
    <glyph glyph-name="N" unicode="N" horiz-adv-x="852" 
d="M76 0v715h188l270 -368c7 -9 30 -51 65 -126c-7 56 -11 103 -11 141v353h187v-715h-187l-270 369c-7 9 -30 50 -65 125c7 -56 11 -103 11 -141v-353h-188z" />
    <glyph glyph-name="O" unicode="O" horiz-adv-x="856" 
d="M428 146c111 0 187 93 187 210c0 116 -78 210 -187 210c-110 0 -187 -93 -187 -210c0 -118 73 -210 187 -210zM810 356c0 -102 -39 -195 -111 -265c-73 -71 -171 -110 -271 -110c-87 0 -174 31 -243 86c-90 72 -139 174 -139 289c0 102 39 194 112 265
c72 70 170 110 270 110s199 -40 271 -110c73 -71 111 -164 111 -265z" />
    <glyph glyph-name="P" unicode="P" horiz-adv-x="634" 
d="M259 393h37c83 0 126 16 126 85s-45 83 -124 83h-39v-168zM259 0h-183v715h218c90 0 161 -1 217 -37c63 -40 100 -114 100 -206c0 -95 -35 -166 -99 -204c-49 -29 -104 -32 -171 -32h-82v-236z" />
    <glyph glyph-name="Q" unicode="Q" horiz-adv-x="856" 
d="M825 -84h-166l-76 100c-40 -21 -92 -33 -152 -33c-223 0 -385 166 -385 374c0 101 39 194 112 265c72 70 168 109 270 109s197 -38 270 -109c72 -70 112 -164 112 -265c0 -107 -40 -201 -115 -268zM546 285l37 -49c18 27 32 64 32 115c0 126 -80 216 -187 216
c-106 0 -187 -91 -187 -211s77 -212 188 -212c17 0 32 4 49 11l-101 130h169z" />
    <glyph glyph-name="R" unicode="R" horiz-adv-x="641" 
d="M259 377h36c82 0 121 26 121 89c0 75 -37 99 -118 99h-39v-188zM76 0v715h216c99 0 175 -1 236 -48c52 -40 80 -101 80 -175c0 -111 -56 -182 -160 -204l195 -288h-220l-164 280v-280h-183z" />
    <glyph glyph-name="S" unicode="S" horiz-adv-x="581" 
d="M108 231c57 -65 113 -98 170 -98c54 0 89 32 89 74c0 57 -39 74 -120 95c-129 34 -192 86 -192 198c0 133 97 232 247 232c80 0 150 -21 212 -64l-61 -140c-45 38 -93 57 -137 57c-48 0 -79 -26 -79 -60c0 -51 49 -62 114 -79c127 -34 197 -81 197 -213
c0 -149 -106 -252 -274 -252c-101 0 -177 32 -254 105z" />
    <glyph glyph-name="T" unicode="T" horiz-adv-x="553" 
d="M179 0v546h-159v169h514v-169h-160v-546h-195z" />
    <glyph glyph-name="U" unicode="U" horiz-adv-x="780" 
d="M72 715h194v-388c0 -127 23 -182 124 -182c119 0 124 74 124 227v343h194v-425c0 -216 -91 -309 -318 -309c-121 0 -205 28 -256 87c-57 65 -62 149 -62 261v386z" />
    <glyph glyph-name="V" unicode="V" horiz-adv-x="711" 
d="M281 0l-300 715h207l143 -400c3 -8 11 -40 24 -96c13 56 22 88 25 96l142 400h207l-300 -715h-148z" />
    <glyph glyph-name="W" unicode="W" horiz-adv-x="970" 
d="M563 715l90 -340c17 -64 22 -100 23 -105c9 45 16 80 22 105l84 340h197l-202 -715h-181l-88 305c-5 18 -13 50 -24 96c-9 -37 -16 -69 -24 -96l-87 -305h-181l-202 715h197l82 -342c9 -36 16 -72 22 -107c7 37 16 73 25 107l90 342h157z" />
    <glyph glyph-name="X" unicode="X" horiz-adv-x="706" 
d="M329 549c6 -13 17 -30 24 -59c7 29 19 47 25 59l86 166h231l-239 -344l264 -371h-221l-121 212c-10 17 -19 36 -25 59c-6 -23 -14 -42 -24 -59l-122 -212h-221l265 375l-240 340h232z" />
    <glyph glyph-name="Y" unicode="Y" horiz-adv-x="597" 
d="M203 0v326l-251 389h225l96 -184c5 -10 17 -28 24 -61c7 32 19 50 25 61l95 184h224l-250 -389v-326h-188z" />
    <glyph glyph-name="Z" unicode="Z" horiz-adv-x="677" 
d="M634 0h-632l361 560h-290v155h602l-360 -559h319v-156z" />
    <glyph glyph-name="bracketleft" unicode="[" horiz-adv-x="363" 
d="M88 731h248v-118h-107v-720h107v-118h-248v956z" />
    <glyph glyph-name="backslash" unicode="\" horiz-adv-x="458" 
d="M350 -93l-350 824h109l349 -824h-108z" />
    <glyph glyph-name="bracketright" unicode="]" horiz-adv-x="363" 
d="M275 731v-956h-247v118h106v720h-106v118h247z" />
    <glyph glyph-name="asciicircum" unicode="^" horiz-adv-x="1000" 
d="M429 714h141l227 -275h-129l-168 167l-169 -167h-129z" />
    <glyph glyph-name="underscore" unicode="_" 
d="M0 -119h500v-117h-500v117z" />
    <glyph glyph-name="quoteleft" unicode="&#x2018;" horiz-adv-x="312" 
d="M196 409h-183l151 306h135z" />
    <glyph glyph-name="a" unicode="a" horiz-adv-x="660" 
d="M593 493v-492h-160v79c-46 -69 -99 -99 -177 -99c-129 0 -217 102 -217 265c0 160 88 263 228 263c74 0 126 -30 165 -97v81h161zM440 247c0 76 -44 125 -115 125s-114 -49 -114 -125c0 -77 43 -124 114 -124s115 47 115 124z" />
    <glyph glyph-name="b" unicode="b" horiz-adv-x="660" 
d="M65 757h166v-258c0 -30 -1 -60 -5 -88c44 74 90 98 172 98c129 0 221 -103 221 -263c0 -165 -91 -265 -227 -265c-68 0 -123 33 -167 99v-80h-160v757zM219 246c0 -77 42 -124 113 -124c70 0 114 47 114 124c0 76 -44 124 -114 124s-113 -48 -113 -124z" />
    <glyph glyph-name="c" unicode="c" horiz-adv-x="461" 
d="M418 331c-33 29 -63 43 -98 43c-67 0 -113 -47 -113 -127c0 -74 44 -124 117 -124c37 0 65 13 94 43v-151c-40 -22 -81 -34 -127 -34c-146 0 -255 101 -255 265c0 155 107 263 257 263c47 0 86 -8 125 -31v-147z" />
    <glyph glyph-name="d" unicode="d" horiz-adv-x="660" 
d="M595 757v-757h-160v80c-44 -66 -99 -99 -167 -99c-136 0 -227 100 -227 265c0 160 92 263 221 263c81 0 128 -24 172 -98c-4 28 -6 58 -6 88v258h167zM441 246c0 76 -44 124 -114 124s-113 -48 -113 -124c0 -77 43 -124 113 -124c71 0 114 47 114 124z" />
    <glyph glyph-name="e" unicode="e" horiz-adv-x="611" 
d="M575 212h-375c1 -77 41 -119 111 -119c53 0 89 20 108 59l131 -53c-31 -74 -112 -118 -229 -118c-180 0 -285 111 -285 260s111 268 275 268c160 0 264 -108 264 -289v-8zM404 310c-6 57 -47 93 -99 93c-56 0 -91 -31 -101 -93h200z" />
    <glyph glyph-name="f" unicode="f" horiz-adv-x="351" 
d="M81 0v370h-74v123h74v101c0 115 63 173 187 173c18 0 42 -3 71 -9v-133c-16 6 -30 9 -40 9c-35 0 -47 -21 -47 -62v-79h87v-123h-87v-370h-171z" />
    <glyph glyph-name="g" unicode="g" horiz-adv-x="660" 
d="M593 493v-492c0 -150 -90 -219 -279 -219c-158 0 -245 63 -250 164h180c5 -30 35 -49 83 -49c92 0 99 49 99 141v45c-37 -62 -93 -92 -171 -92c-128 0 -216 99 -216 259c0 157 88 259 228 259c74 0 126 -29 165 -95v79h161zM440 248c0 75 -43 122 -115 122
s-116 -47 -116 -122s44 -122 116 -122s115 47 115 122z" />
    <glyph glyph-name="h" unicode="h" horiz-adv-x="653" 
d="M64 0v757h171v-266c0 -30 -2 -61 -6 -89c45 74 100 107 183 107c64 0 116 -22 146 -60c33 -42 36 -96 36 -167v-282h-174v264c0 77 -23 113 -81 113c-78 0 -104 -59 -104 -170v-207h-171z" />
    <glyph glyph-name="i" unicode="i" horiz-adv-x="312" 
d="M69 0v493h174v-493h-174zM60 647c0 52 43 96 96 96s96 -42 96 -96s-44 -97 -96 -97c-54 0 -96 46 -96 97z" />
    <glyph glyph-name="j" unicode="j" horiz-adv-x="312" 
d="M69 -218v711h174v-711h-174zM60 647c0 52 43 96 96 96s96 -42 96 -96s-44 -97 -96 -97c-54 0 -96 46 -96 97z" />
    <glyph glyph-name="k" unicode="k" horiz-adv-x="641" 
d="M65 0v757h171v-479l179 215h216l-222 -237l242 -256h-229l-186 219v-219h-171z" />
    <glyph glyph-name="l" unicode="l" horiz-adv-x="312" 
d="M69 0v757h174v-757h-174z" />
    <glyph glyph-name="m" unicode="m" horiz-adv-x="948" 
d="M717 0v269c0 78 -14 113 -71 113c-81 0 -87 -65 -87 -173v-209h-168v269c0 76 -12 113 -70 113c-82 0 -88 -66 -88 -173v-209h-169v493h171v-86c42 70 93 102 166 102c80 0 131 -31 153 -93c40 63 94 93 168 93c59 0 104 -20 134 -60c31 -42 33 -90 33 -147v-302h-172z
" />
    <glyph glyph-name="n" unicode="n" horiz-adv-x="653" 
d="M64 0v493h159v-100c47 81 103 116 189 116c64 0 116 -22 146 -60c33 -42 36 -96 36 -167v-282h-174v264c0 77 -23 113 -81 113c-78 0 -104 -59 -104 -170v-207h-171z" />
    <glyph glyph-name="o" unicode="o" horiz-adv-x="623" 
d="M587 245c0 -146 -120 -264 -276 -264c-157 0 -275 119 -275 264c0 146 119 264 275 264s276 -118 276 -264zM414 245c0 73 -39 119 -103 119s-103 -46 -103 -119s39 -118 103 -118s103 45 103 118z" />
    <glyph glyph-name="p" unicode="p" horiz-adv-x="660" 
d="M65 -218v711h160v-83c44 66 99 99 167 99c136 0 227 -99 227 -264c0 -160 -92 -264 -221 -264c-81 0 -128 25 -172 99c4 -28 5 -58 5 -88v-210h-166zM219 245c0 -76 43 -124 113 -124s114 48 114 124c0 77 -44 124 -114 124c-71 0 -113 -47 -113 -124z" />
    <glyph glyph-name="q" unicode="q" horiz-adv-x="660" 
d="M595 -218h-167v210c0 30 2 60 6 88c-44 -74 -91 -99 -172 -99c-129 0 -221 104 -221 264c0 165 91 264 227 264c68 0 123 -33 167 -99v83h160v-711zM441 245c0 77 -43 124 -114 124c-70 0 -113 -47 -113 -124c0 -76 43 -124 113 -124s114 48 114 124z" />
    <glyph glyph-name="r" unicode="r" horiz-adv-x="447" 
d="M65 0v493h164v-116c32 82 93 127 169 127c12 0 28 -1 49 -3l-17 -158c-21 6 -40 10 -60 10c-82 0 -132 -50 -132 -149v-204h-173z" />
    <glyph glyph-name="s" unicode="s" horiz-adv-x="484" 
d="M18 41l36 133c51 -45 116 -69 176 -69c44 0 67 15 67 41c0 41 -40 41 -105 58c-102 27 -149 72 -149 147c0 90 71 158 200 158c65 0 129 -15 197 -45l-36 -120c-48 33 -96 48 -142 48c-40 0 -60 -13 -60 -36c0 -34 44 -36 113 -57c94 -28 140 -70 140 -149
c0 -99 -81 -169 -212 -169c-85 0 -158 19 -225 60z" />
    <glyph glyph-name="t" unicode="t" horiz-adv-x="353" 
d="M91 0v370h-74v123h74v147h171v-147h74v-123h-74v-370h-171z" />
    <glyph glyph-name="u" unicode="u" horiz-adv-x="631" 
d="M570 493v-252c0 -77 -2 -138 -59 -195c-44 -44 -109 -65 -196 -65s-151 21 -197 65c-55 53 -58 115 -58 195v252h166v-263c0 -77 21 -117 87 -117s87 40 87 117v263h170z" />
    <glyph glyph-name="v" unicode="v" horiz-adv-x="564" 
d="M213 0l-222 493h186l84 -218c7 -19 18 -44 23 -77c5 33 17 58 24 77l84 218h181l-224 -493h-136z" />
    <glyph glyph-name="w" unicode="w" horiz-adv-x="803" 
d="M454 493l73 -218c7 -20 16 -46 22 -77c5 31 14 56 21 77l74 218h180l-207 -493h-123l-73 223c-6 17 -12 43 -19 77c-7 -34 -14 -60 -20 -77l-73 -223h-123l-206 493h179l74 -218c7 -20 15 -46 21 -77c5 31 15 56 22 77l73 218h105z" />
    <glyph glyph-name="x" unicode="x" horiz-adv-x="530" 
d="M237 409c8 -14 17 -32 24 -59c8 31 18 49 24 59l47 84h197l-169 -229l197 -264h-196l-74 124c-11 19 -19 38 -24 59c-6 -22 -13 -41 -24 -59l-73 -124h-193l194 264l-166 229h190z" />
    <glyph glyph-name="y" unicode="y" horiz-adv-x="532" 
d="M37 -218l139 293l-199 418h193l69 -178c6 -16 16 -41 23 -78c8 39 17 63 23 78l70 178h186l-310 -711h-194z" />
    <glyph glyph-name="z" unicode="z" horiz-adv-x="542" 
d="M500 0h-500l253 366h-222v127h491l-262 -359h240v-134z" />
    <glyph glyph-name="braceleft" unicode="{" 
d="M436 721v-118c-7 0 -14 1 -20 1c-68 0 -81 -21 -81 -89v-117c0 -85 -20 -122 -103 -139c84 -17 103 -53 103 -138v-118c0 -67 13 -88 80 -88c7 0 14 1 21 1v-118c-14 0 -27 -1 -40 -1c-64 0 -112 6 -146 24c-47 25 -52 68 -52 137v125c0 86 -28 118 -106 118
c-5 0 -12 -1 -18 -1v118c6 0 12 -1 18 -1c78 0 106 34 106 119v124c0 69 5 113 52 138c34 18 83 24 147 24c12 0 25 -1 39 -1z" />
    <glyph glyph-name="bar" unicode="|" 
d="M192 764h117v-1000h-117v1000z" />
    <glyph glyph-name="braceright" unicode="}" 
d="M65 721c14 0 27 1 39 1c64 0 112 -6 147 -24c47 -25 52 -69 52 -138v-124c0 -86 28 -119 106 -119c6 0 12 1 18 1v-118c-6 0 -12 1 -18 1c-78 0 -106 -33 -106 -118v-125c0 -69 -5 -113 -52 -138c-33 -18 -80 -23 -142 -23c-14 0 -29 1 -44 1v118c8 0 15 -1 21 -1
c68 0 80 21 80 88v118c0 84 19 121 103 138c-84 17 -103 54 -103 139v117c0 66 -12 89 -78 89c-7 0 -15 -1 -23 -1v118z" />
    <glyph glyph-name="asciitilde" unicode="~" horiz-adv-x="833" 
d="M747 400v-124c-64 -44 -124 -67 -184 -67c-30 0 -59 5 -84 14c-72 25 -137 50 -205 50c-59 0 -117 -27 -187 -77v124c71 46 133 70 189 70s101 -14 144 -28c48 -16 94 -36 146 -36c58 0 115 26 181 74z" />
    <glyph glyph-name="exclamdown" unicode="&#xa1;" horiz-adv-x="343" 
d="M73 649c0 55 43 99 98 99s99 -43 99 -99c0 -55 -44 -99 -99 -99c-56 0 -98 45 -98 99zM81 491h181v-510h-181v510z" />
    <glyph glyph-name="cent" unicode="&#xa2;" horiz-adv-x="625" 
d="M477 433c-33 29 -63 44 -98 44c-67 0 -113 -47 -113 -128c0 -75 44 -125 117 -125c37 0 65 13 94 43v-151c-33 -17 -67 -27 -103 -31v-99h-56v99c-146 26 -223 117 -223 263c0 141 85 242 223 263v83h56v-82c37 -4 70 -13 103 -31v-148z" />
    <glyph glyph-name="sterling" unicode="&#xa3;" horiz-adv-x="625" 
d="M62 373h79c-27 38 -53 83 -53 151c0 104 87 198 246 198c153 0 240 -81 243 -230h-168c-1 61 -29 92 -78 92c-43 0 -71 -30 -71 -71c0 -37 29 -77 55 -140h163v-69h-154c-1 -62 -27 -101 -84 -124l2 -10c17 2 31 3 40 3c46 0 81 -27 126 -27c34 0 51 13 70 49l117 -93
c-34 -80 -97 -121 -184 -121c-82 0 -151 50 -204 50c-31 0 -53 -14 -79 -44l-88 108c33 47 70 74 115 79c20 24 29 50 29 79c0 15 -3 32 -8 51h-114v69z" />
    <glyph glyph-name="fraction" unicode="&#x2044;" horiz-adv-x="167" 
d="M-167 -19l408 741h92l-410 -741h-90z" />
    <glyph glyph-name="yen" unicode="&#xa5;" horiz-adv-x="652" 
d="M242 0v245h-237v99h219l-48 73h-171v99h106l-126 193h190l122 -202c7 -11 18 -35 30 -71c8 27 17 51 29 70l123 203h187l-125 -193h106v-99h-172l-46 -73h218v-99h-236v-245h-169z" />
    <glyph glyph-name="florin" unicode="&#x192;" horiz-adv-x="625" 
d="M76 -57c12 -3 22 -4 31 -4c64 0 67 51 93 204l33 194h-91l20 121h91l13 74c22 120 58 191 194 191c29 0 60 -5 90 -14l-22 -127c-18 8 -31 12 -42 12c-36 0 -49 -26 -56 -69l-11 -67h88l-20 -121h-89l-42 -253c-32 -190 -65 -274 -225 -274c-29 0 -56 4 -83 10z" />
    <glyph glyph-name="section" unicode="&#xa7;" horiz-adv-x="595" 
d="M299 345c-50 0 -87 -36 -87 -87c0 -59 40 -93 84 -93c50 0 88 40 88 89c0 53 -39 91 -85 91zM138 412c-51 24 -74 64 -74 129c0 112 90 191 241 191c149 0 232 -75 236 -207h-181v10c0 44 -26 68 -68 68c-41 0 -68 -26 -68 -66c0 -65 54 -59 136 -70
c136 -19 202 -78 202 -205c0 -81 -36 -138 -105 -162c51 -25 74 -65 74 -129c0 -112 -90 -192 -241 -192s-235 78 -236 213h181v-11c0 -47 24 -73 68 -73c41 0 68 26 68 66c0 65 -54 59 -136 71c-136 19 -203 78 -203 206c0 80 38 138 106 161z" />
    <glyph glyph-name="currency" unicode="&#xa4;" horiz-adv-x="625" 
d="M598 198l-6 -171c-54 -30 -113 -46 -171 -46c-178 0 -305 106 -336 281h-85l13 60h64c-1 11 -1 22 -1 32c0 7 1 18 2 33h-78l13 61h72c36 173 163 274 338 274c62 0 121 -18 171 -51v-169c-47 47 -100 70 -157 70c-80 0 -140 -45 -164 -124h243l-21 -61h-233
c-2 -16 -3 -29 -3 -38c0 -4 0 -13 1 -27h214l-22 -60h-183c19 -81 84 -130 168 -130c55 0 105 23 161 66z" />
    <glyph glyph-name="quotesingle" unicode="'" horiz-adv-x="181" 
d="M37 702h107v-274h-107v274z" />
    <glyph glyph-name="quotedblleft" unicode="&#x201c;" horiz-adv-x="565" 
d="M196 409h-183l151 306h135zM448 409h-182l151 306h135z" />
    <glyph glyph-name="guillemotleft" unicode="&#xab;" horiz-adv-x="544" 
d="M429 484l93 -65l-128 -174l128 -170l-93 -68l-176 238zM197 484l94 -65l-129 -174l129 -170l-94 -68l-175 238z" />
    <glyph glyph-name="guilsinglleft" unicode="&#x2039;" horiz-adv-x="312" 
d="M197 7l-175 238l175 239l94 -68l-129 -171l129 -173z" />
    <glyph glyph-name="guilsinglright" unicode="&#x203a;" horiz-adv-x="312" 
d="M115 7l-93 65l128 173l-128 171l93 68l176 -239z" />
    <glyph glyph-name="fi" unicode="&#xfb01;" horiz-adv-x="657" 
d="M81 0v370h-74v123h74v101c0 115 63 173 187 173c18 0 42 -3 71 -9v-133c-16 6 -30 9 -40 9c-35 0 -47 -21 -47 -62v-79h87v-123h-87v-370h-171zM414 0v493h174v-493h-174zM405 647c0 52 43 96 96 96s96 -42 96 -96s-44 -97 -96 -97c-54 0 -96 46 -96 97z" />
    <glyph glyph-name="fl" unicode="&#xfb02;" horiz-adv-x="657" 
d="M81 0v370h-74v123h74v101c0 115 63 173 187 173c18 0 42 -3 71 -9v-133c-16 6 -30 9 -40 9c-35 0 -47 -21 -47 -62v-79h87v-123h-87v-370h-171zM414 0v757h174v-757h-174z" />
    <glyph glyph-name="endash" unicode="&#x2013;" 
d="M0 179v133h500v-133h-500z" />
    <glyph glyph-name="dagger" unicode="&#x2020;" horiz-adv-x="595" 
d="M218 -202v517h-184v154h184v246h159v-246h184v-154h-184v-517h-159z" />
    <glyph glyph-name="daggerdbl" unicode="&#x2021;" horiz-adv-x="595" 
d="M216 366h-185v141h185v208h162v-208h186v-141h-186v-218h186v-141h-186v-208h-162v208h-185v141h185v218z" />
    <glyph glyph-name="periodcentered" unicode="&#xb7;" horiz-adv-x="312" 
d="M58 352c0 54 42 98 98 98c55 0 99 -43 99 -98c0 -56 -44 -99 -99 -99s-98 44 -98 99z" />
    <glyph glyph-name="paragraph" unicode="&#xb6;" 
d="M487 722v-60h-52v-662h-85v662h-74v-662h-85v383c-109 4 -177 73 -177 169c0 100 72 170 190 170h283z" />
    <glyph glyph-name="bullet" unicode="&#x2022;" horiz-adv-x="590" 
d="M150 372c0 80 65 144 145 144c79 0 144 -64 144 -144c0 -79 -65 -145 -145 -145s-144 65 -144 145z" />
    <glyph glyph-name="quotesinglbase" unicode="&#x201a;" horiz-adv-x="312" 
d="M117 162h182l-151 -306h-135z" />
    <glyph glyph-name="quotedblbase" unicode="&#x201e;" horiz-adv-x="565" 
d="M369 162h183l-151 -306h-135zM117 162h182l-151 -306h-135z" />
    <glyph glyph-name="quotedblright" unicode="&#x201d;" horiz-adv-x="565" 
d="M369 715h183l-151 -306h-135zM117 715h182l-151 -306h-135z" />
    <glyph glyph-name="guillemotright" unicode="&#xbb;" horiz-adv-x="544" 
d="M115 484l175 -239l-175 -238l-93 68l128 170l-128 174zM346 484l176 -239l-176 -238l-93 68l128 170l-128 174z" />
    <glyph glyph-name="ellipsis" unicode="&#x2026;" horiz-adv-x="1000" 
d="M69 80c0 54 42 99 98 99c55 0 99 -44 99 -99c0 -56 -44 -99 -99 -99s-98 44 -98 99zM402 80c0 54 42 99 98 99c55 0 99 -44 99 -99c0 -56 -44 -99 -99 -99s-98 44 -98 99zM736 80c0 54 42 99 98 99c55 0 99 -44 99 -99c0 -56 -44 -99 -99 -99s-98 44 -98 99z" />
    <glyph glyph-name="perthousand" unicode="&#x2030;" horiz-adv-x="1319" 
d="M192 -19l429 741h92l-432 -741h-89zM888 179c0 -119 -70 -198 -183 -198s-184 79 -184 198s71 197 184 197s183 -78 183 -197zM705 56c46 0 62 42 62 123c0 80 -15 122 -62 122s-62 -42 -62 -122s15 -123 62 -123zM1303 179c0 -119 -71 -198 -184 -198s-183 79 -183 198
s70 197 183 197s184 -78 184 -197zM1119 56c46 0 62 42 62 123c0 80 -15 122 -62 122s-62 -42 -62 -122s15 -123 62 -123zM392 525c0 -119 -71 -197 -184 -197s-184 78 -184 197s71 197 184 197s184 -78 184 -197zM208 403c46 0 62 41 62 122c0 80 -15 122 -62 122
s-62 -42 -62 -122s15 -122 62 -122z" />
    <glyph glyph-name="questiondown" unicode="&#xbf;" horiz-adv-x="605" 
d="M218 487h168v-202h-52c-74 0 -113 -32 -113 -88c0 -45 35 -79 77 -79c44 0 73 25 75 72h167v-4c0 -124 -97 -208 -250 -208c-139 0 -230 90 -230 219c0 108 64 184 158 186v104zM407 649c0 -54 -43 -99 -99 -99c-55 0 -98 44 -98 99c0 56 43 99 98 99s99 -44 99 -99z" />
    <glyph glyph-name="grave" unicode="`" 
d="M109 731h137l89 -171h-75z" />
    <glyph glyph-name="acute" unicode="&#xb4;" 
d="M391 731l-151 -171h-75l89 171h137z" />
    <glyph glyph-name="circumflex" unicode="&#x2c6;" 
d="M93 560l89 171h135l89 -171h-75l-81 88l-82 -88h-75z" />
    <glyph glyph-name="tilde" unicode="&#x2dc;" 
d="M412 719c-20 -84 -51 -124 -107 -124c-11 0 -24 1 -37 5l-45 13c-15 4 -26 7 -33 7c-22 0 -35 -12 -44 -38h-58c18 81 51 120 105 120c11 0 26 -3 44 -8l46 -13c9 -3 18 -4 28 -4c22 0 36 14 43 42h58z" />
    <glyph glyph-name="macron" unicode="&#xaf;" 
d="M100 609v82h300v-82h-300z" />
    <glyph glyph-name="breve" unicode="&#x2d8;" 
d="M96 725h64c4 -47 33 -68 90 -68c58 0 87 22 89 68h64c-8 -103 -55 -150 -153 -150c-97 0 -146 48 -154 150z" />
    <glyph glyph-name="dotaccent" unicode="&#x2d9;" 
d="M178 650c0 38 34 73 72 73c41 0 73 -33 73 -73c0 -42 -31 -73 -73 -73c-39 0 -72 33 -72 73z" />
    <glyph glyph-name="dieresis" unicode="&#xa8;" 
d="M84 651c0 36 33 69 71 69c39 0 69 -31 69 -69c0 -41 -29 -71 -69 -71c-39 0 -71 32 -71 71zM275 651c0 36 32 69 70 69c39 0 70 -31 70 -69c0 -41 -30 -71 -70 -71c-39 0 -70 32 -70 71z" />
    <glyph glyph-name="ring" unicode="&#x2da;" 
d="M118 683c0 73 58 133 132 133c73 0 133 -60 133 -133c0 -74 -59 -132 -133 -132s-132 57 -132 132zM194 683c0 -31 25 -56 56 -56s56 25 56 56s-25 56 -56 56s-56 -25 -56 -56z" />
    <glyph glyph-name="cedilla" unicode="&#xb8;" 
d="M133 -215v68c61 -17 106 -22 132 -22c28 0 42 11 42 35c0 22 -19 31 -58 31c-8 0 -17 0 -27 -1v104h56v-41h9c73 0 112 -34 112 -94c0 -63 -43 -102 -124 -102c-37 0 -85 6 -142 22z" />
    <glyph glyph-name="hungarumlaut" unicode="&#x2dd;" 
d="M192 731h116l-117 -171h-54zM278 560l72 171h121l-135 -171h-58z" />
    <glyph glyph-name="ogonek" unicode="&#x2db;" 
d="M309 0c-38 -35 -58 -63 -58 -96c0 -27 12 -39 37 -39h50v-93h-75c-60 0 -101 38 -101 96c0 50 31 90 94 132h53z" />
    <glyph glyph-name="caron" unicode="&#x2c7;" 
d="M93 731h75l82 -88l81 88h75l-89 -171h-135z" />
    <glyph glyph-name="emdash" unicode="&#x2014;" horiz-adv-x="1000" 
d="M0 179v133h1000v-133h-1000z" />
    <glyph glyph-name="AE" unicode="&#xc6;" horiz-adv-x="861" 
d="M-16 0l247 715h427l48 -157h-231l41 -124h228l47 -153h-225l40 -121h222l48 -160h-406l-37 128h-220l-36 -128h-193zM251 267h141l-46 157c-5 16 -13 48 -24 96c-10 -43 -19 -75 -25 -96z" />
    <glyph glyph-name="ordfeminine" unicode="&#xaa;" horiz-adv-x="495" 
d="M445 715v-344h-120v55c-35 -48 -74 -69 -133 -69c-97 0 -163 71 -163 185c0 112 66 184 171 184c56 0 95 -21 124 -68v57h121zM330 543c0 53 -33 87 -86 87s-86 -34 -86 -87c0 -54 33 -87 86 -87s86 33 86 87z" />
    <glyph glyph-name="Lslash" unicode="&#x141;" horiz-adv-x="547" 
d="M91 0v244l-61 -42l-66 107l127 88v318h195v-206l97 68l71 -104l-168 -117v-189h242v-167h-437z" />
    <glyph glyph-name="Oslash" unicode="&#xd8;" horiz-adv-x="856" 
d="M100 -23l-45 46l83 86c-62 74 -92 155 -92 248c0 208 167 375 388 375c87 0 160 -25 229 -79l76 79l47 -46l-74 -77c63 -64 98 -156 98 -252c0 -101 -39 -194 -112 -265c-72 -70 -168 -109 -270 -109c-95 0 -172 26 -242 83zM536 521c-34 24 -68 35 -108 35
c-107 0 -194 -88 -194 -199c0 -43 10 -78 34 -114zM314 197c32 -26 68 -38 114 -38c107 0 195 87 195 201c0 47 -14 87 -39 116z" />
    <glyph glyph-name="OE" unicode="&#x152;" horiz-adv-x="1086" 
d="M633 715h420v-157h-248v-124h234v-153h-234v-121h248v-160h-420v97c-59 -80 -131 -116 -235 -116c-97 0 -174 31 -242 100c-73 74 -110 167 -110 276c0 213 147 377 370 377c94 0 167 -35 217 -101v82zM428 141c114 0 193 87 193 216c0 132 -83 217 -193 217
c-114 0 -193 -97 -193 -217c0 -121 76 -216 193 -216z" />
    <glyph glyph-name="ordmasculine" unicode="&#xba;" horiz-adv-x="467" 
d="M440 541c0 -102 -90 -184 -207 -184s-206 83 -206 184c0 103 89 185 206 185s207 -82 207 -185zM311 541c0 52 -30 84 -78 84s-77 -32 -77 -84c0 -51 29 -82 77 -82s78 31 78 82z" />
    <glyph glyph-name="ae" unicode="&#xe6;" horiz-adv-x="910" 
d="M423 437c38 44 92 73 173 73c162 0 270 -107 270 -288v-10h-375c0 -77 41 -119 111 -119c53 0 90 20 108 58l131 -52c-31 -75 -112 -118 -231 -118c-93 0 -155 23 -196 78c-38 -49 -100 -74 -184 -74c-129 0 -198 64 -198 163c0 103 75 168 182 168c55 0 100 -11 141 -37
c0 5 1 9 1 14c0 62 -41 91 -124 91c-64 0 -123 -15 -162 -37l-1 128c59 21 119 32 180 32c81 0 135 -19 174 -70zM354 151c0 38 -29 63 -79 63c-49 0 -79 -26 -79 -59c0 -44 25 -67 72 -67c56 0 86 26 86 63zM695 309c-6 57 -47 93 -99 93c-56 0 -91 -31 -101 -93h200z" />
    <glyph glyph-name="dotlessi" unicode="&#x131;" horiz-adv-x="312" 
d="M69 0v493h174v-493h-174z" />
    <glyph glyph-name="lslash" unicode="&#x142;" horiz-adv-x="336" 
d="M81 0v244l-47 -34l-60 75l107 77v395h174v-288l47 34l59 -75l-106 -78v-350h-174z" />
    <glyph glyph-name="oslash" unicode="&#xf8;" horiz-adv-x="623" 
d="M90 -23l-41 41l54 55c-45 55 -67 109 -67 173c0 146 121 264 275 264c62 0 121 -19 168 -54l65 67l42 -37l-64 -68c42 -44 65 -106 65 -172c0 -146 -123 -264 -276 -264c-68 0 -126 20 -164 52zM245 143c16 -15 39 -23 68 -23c64 0 108 48 108 127c0 22 -4 43 -11 63z
M379 350c-22 17 -43 21 -69 21c-63 0 -107 -49 -107 -127c0 -22 1 -41 12 -62z" />
    <glyph glyph-name="oe" unicode="&#x153;" horiz-adv-x="981" 
d="M497 431c36 48 93 80 183 80c161 0 266 -109 266 -291v-13l-374 -2c0 -67 45 -108 112 -108c51 0 89 21 107 60l131 -54c-31 -77 -113 -122 -232 -122c-93 0 -155 23 -196 78c-41 -57 -100 -78 -190 -78c-154 0 -268 106 -268 259c0 157 119 270 267 270
c93 0 153 -31 194 -79zM423 245c0 80 -41 130 -107 130s-108 -50 -108 -130s42 -129 108 -129s107 48 107 129zM575 305l200 2c-6 57 -47 93 -99 93c-57 0 -91 -32 -101 -95z" />
    <glyph glyph-name="germandbls" unicode="&#xdf;" horiz-adv-x="660" 
d="M67 0v502c0 79 5 140 50 190c40 45 115 74 207 74c165 0 258 -73 258 -191c0 -75 -41 -127 -121 -149c102 -10 164 -83 164 -196c0 -151 -93 -241 -266 -241c-20 0 -38 1 -55 1v130c16 -1 26 -1 30 -1c77 0 118 44 118 123s-45 121 -130 121c-2 0 -8 -1 -18 -1v110h4
c77 0 116 29 116 89c0 49 -33 79 -87 79c-93 0 -99 -58 -99 -182v-458h-171z" />
    <glyph glyph-name="Aacute" unicode="&#xc1;" horiz-adv-x="722" 
d="M-8 0l247 715h244l247 -715h-194l-36 128h-277l-37 -128h-194zM265 267h194l-73 236c-3 11 -11 43 -24 96c-13 -53 -22 -85 -25 -96zM502 962l-151 -171h-75l89 171h137z" />
    <glyph glyph-name="Acircumflex" unicode="&#xc2;" horiz-adv-x="722" 
d="M-8 0l247 715h244l247 -715h-194l-36 128h-277l-37 -128h-194zM265 267h194l-73 236c-3 11 -11 43 -24 96c-13 -53 -22 -85 -25 -96zM204 791l89 171h135l89 -171h-75l-81 88l-82 -88h-75z" />
    <glyph glyph-name="Adieresis" unicode="&#xc4;" horiz-adv-x="722" 
d="M-8 0l247 715h244l247 -715h-194l-36 128h-277l-37 -128h-194zM265 267h194l-73 236c-3 11 -11 43 -24 96c-13 -53 -22 -85 -25 -96zM195 882c0 36 33 69 71 69c39 0 69 -31 69 -69c0 -41 -29 -71 -69 -71c-39 0 -71 32 -71 71zM386 882c0 36 32 69 70 69
c39 0 70 -31 70 -69c0 -41 -30 -71 -70 -71c-39 0 -70 32 -70 71z" />
    <glyph glyph-name="Agrave" unicode="&#xc0;" horiz-adv-x="722" 
d="M-8 0l247 715h244l247 -715h-194l-36 128h-277l-37 -128h-194zM265 267h194l-73 236c-3 11 -11 43 -24 96c-13 -53 -22 -85 -25 -96zM220 962h137l89 -171h-75z" />
    <glyph glyph-name="Aring" unicode="&#xc5;" horiz-adv-x="722" 
d="M-8 0l252 715l78 -2v2c-53 13 -89 63 -89 120c0 71 56 128 128 128s129 -58 129 -128c0 -56 -33 -102 -86 -120v-2l75 2l251 -715h-194l-36 128h-277l-37 -128h-194zM265 267h194l-73 236c-3 11 -11 43 -24 96c-13 -53 -22 -85 -25 -96zM307 834c0 -29 24 -53 54 -53
s55 24 55 53c0 30 -25 55 -55 55c-29 0 -54 -25 -54 -55z" />
    <glyph glyph-name="Atilde" unicode="&#xc3;" horiz-adv-x="722" 
d="M-8 0l247 715h244l247 -715h-194l-36 128h-277l-37 -128h-194zM265 267h194l-73 236c-3 11 -11 43 -24 96c-13 -53 -22 -85 -25 -96zM523 950c-20 -84 -51 -124 -107 -124c-11 0 -24 1 -37 5l-45 13c-15 4 -26 7 -33 7c-22 0 -35 -12 -44 -38h-58c18 81 51 120 105 120
c11 0 26 -3 44 -8l46 -13c9 -3 18 -4 28 -4c22 0 36 14 43 42h58z" />
    <glyph glyph-name="Ccedilla" unicode="&#xc7;" horiz-adv-x="628" 
d="M594 687v-213c-52 58 -102 86 -165 86c-113 0 -188 -86 -188 -207c0 -110 74 -199 188 -199c63 0 113 28 165 86v-213c-62 -30 -121 -45 -185 -45c-211 0 -363 159 -363 375s152 375 363 375c64 0 123 -15 185 -45zM270 -215v68c61 -17 106 -22 132 -22c28 0 42 11 42 35
c0 22 -19 31 -58 31c-8 0 -17 0 -27 -1v104h56v-41h9c73 0 112 -34 112 -94c0 -63 -43 -102 -124 -102c-37 0 -85 6 -142 22z" />
    <glyph glyph-name="Eacute" unicode="&#xc9;" horiz-adv-x="567" 
d="M76 0v715h438v-157h-248v-124h234v-153h-234v-121h248v-160h-438zM441 962l-151 -171h-75l89 171h137z" />
    <glyph glyph-name="Ecircumflex" unicode="&#xca;" horiz-adv-x="567" 
d="M76 0v715h438v-157h-248v-124h234v-153h-234v-121h248v-160h-438zM143 791l89 171h135l89 -171h-75l-81 88l-82 -88h-75z" />
    <glyph glyph-name="Edieresis" unicode="&#xcb;" horiz-adv-x="567" 
d="M76 0v715h438v-157h-248v-124h234v-153h-234v-121h248v-160h-438zM134 882c0 36 33 69 71 69c39 0 69 -31 69 -69c0 -41 -29 -71 -69 -71c-39 0 -71 32 -71 71zM325 882c0 36 32 69 70 69c39 0 70 -31 70 -69c0 -41 -30 -71 -70 -71c-39 0 -70 32 -70 71z" />
    <glyph glyph-name="Egrave" unicode="&#xc8;" horiz-adv-x="567" 
d="M76 0v715h438v-157h-248v-124h234v-153h-234v-121h248v-160h-438zM159 962h137l89 -171h-75z" />
    <glyph glyph-name="Eth" unicode="&#xd0;" horiz-adv-x="777" 
d="M279 160h34c149 0 220 57 220 197c0 142 -73 198 -220 198h-34v-129h133v-126h-133v-140zM87 0v300h-87v126h87v289h171c133 0 241 -2 335 -68c90 -63 138 -162 138 -290c0 -127 -48 -226 -138 -290c-89 -63 -189 -67 -308 -67h-198z" />
    <glyph glyph-name="Euro" unicode="&#x20ac;" horiz-adv-x="625" 
d="M598 198l-6 -171c-54 -30 -113 -46 -171 -46c-178 0 -305 106 -336 281h-85l13 60h64c-1 11 -1 22 -1 32c0 7 1 18 2 33h-78l13 61h72c36 173 163 274 338 274c62 0 121 -18 171 -51v-169c-47 47 -100 70 -157 70c-80 0 -140 -45 -164 -124h243l-21 -61h-233
c-2 -16 -3 -29 -3 -38c0 -4 0 -13 1 -27h214l-22 -60h-183c19 -81 84 -130 168 -130c55 0 105 23 161 66z" />
    <glyph glyph-name="Iacute" unicode="&#xcd;" horiz-adv-x="359" 
d="M81 0v715h197v-715h-197zM321 962l-151 -171h-75l89 171h137z" />
    <glyph glyph-name="Icircumflex" unicode="&#xce;" horiz-adv-x="359" 
d="M81 0v715h197v-715h-197zM23 791l89 171h135l89 -171h-75l-81 88l-82 -88h-75z" />
    <glyph glyph-name="Idieresis" unicode="&#xcf;" horiz-adv-x="359" 
d="M81 0v715h197v-715h-197zM14 882c0 36 33 69 71 69c39 0 69 -31 69 -69c0 -41 -29 -71 -69 -71c-39 0 -71 32 -71 71zM205 882c0 36 32 69 70 69c39 0 70 -31 70 -69c0 -41 -30 -71 -70 -71c-39 0 -70 32 -70 71z" />
    <glyph glyph-name="Igrave" unicode="&#xcc;" horiz-adv-x="359" 
d="M81 0v715h197v-715h-197zM39 962h137l89 -171h-75z" />
    <glyph glyph-name="Ntilde" unicode="&#xd1;" horiz-adv-x="852" 
d="M76 0v715h188l270 -368c7 -9 30 -51 65 -126c-7 56 -11 103 -11 141v353h187v-715h-187l-270 369c-7 9 -30 50 -65 125c7 -56 11 -103 11 -141v-353h-188zM588 950c-20 -84 -51 -124 -107 -124c-11 0 -24 1 -37 5l-45 13c-15 4 -26 7 -33 7c-22 0 -35 -12 -44 -38h-58
c18 81 51 120 105 120c11 0 26 -3 44 -8l46 -13c9 -3 18 -4 28 -4c22 0 36 14 43 42h58z" />
    <glyph glyph-name="Oacute" unicode="&#xd3;" horiz-adv-x="856" 
d="M428 146c111 0 187 93 187 210c0 116 -78 210 -187 210c-110 0 -187 -93 -187 -210c0 -118 73 -210 187 -210zM810 356c0 -102 -39 -195 -111 -265c-73 -71 -171 -110 -271 -110c-87 0 -174 31 -243 86c-90 72 -139 174 -139 289c0 102 39 194 112 265
c72 70 170 110 270 110s199 -40 271 -110c73 -71 111 -164 111 -265zM569 962l-151 -171h-75l89 171h137z" />
    <glyph glyph-name="Ocircumflex" unicode="&#xd4;" horiz-adv-x="856" 
d="M428 146c111 0 187 93 187 210c0 116 -78 210 -187 210c-110 0 -187 -93 -187 -210c0 -118 73 -210 187 -210zM810 356c0 -102 -39 -195 -111 -265c-73 -71 -171 -110 -271 -110c-87 0 -174 31 -243 86c-90 72 -139 174 -139 289c0 102 39 194 112 265
c72 70 170 110 270 110s199 -40 271 -110c73 -71 111 -164 111 -265zM271 791l89 171h135l89 -171h-75l-81 88l-82 -88h-75z" />
    <glyph glyph-name="Odieresis" unicode="&#xd6;" horiz-adv-x="856" 
d="M428 146c111 0 187 93 187 210c0 116 -78 210 -187 210c-110 0 -187 -93 -187 -210c0 -118 73 -210 187 -210zM810 356c0 -102 -39 -195 -111 -265c-73 -71 -171 -110 -271 -110c-87 0 -174 31 -243 86c-90 72 -139 174 -139 289c0 102 39 194 112 265
c72 70 170 110 270 110s199 -40 271 -110c73 -71 111 -164 111 -265zM262 882c0 36 33 69 71 69c39 0 69 -31 69 -69c0 -41 -29 -71 -69 -71c-39 0 -71 32 -71 71zM453 882c0 36 32 69 70 69c39 0 70 -31 70 -69c0 -41 -30 -71 -70 -71c-39 0 -70 32 -70 71z" />
    <glyph glyph-name="Ograve" unicode="&#xd2;" horiz-adv-x="856" 
d="M428 146c111 0 187 93 187 210c0 116 -78 210 -187 210c-110 0 -187 -93 -187 -210c0 -118 73 -210 187 -210zM810 356c0 -102 -39 -195 -111 -265c-73 -71 -171 -110 -271 -110c-87 0 -174 31 -243 86c-90 72 -139 174 -139 289c0 102 39 194 112 265
c72 70 170 110 270 110s199 -40 271 -110c73 -71 111 -164 111 -265zM287 962h137l89 -171h-75z" />
    <glyph glyph-name="Otilde" unicode="&#xd5;" horiz-adv-x="856" 
d="M428 146c111 0 187 93 187 210c0 116 -78 210 -187 210c-110 0 -187 -93 -187 -210c0 -118 73 -210 187 -210zM810 356c0 -102 -39 -195 -111 -265c-73 -71 -171 -110 -271 -110c-87 0 -174 31 -243 86c-90 72 -139 174 -139 289c0 102 39 194 112 265
c72 70 170 110 270 110s199 -40 271 -110c73 -71 111 -164 111 -265zM590 950c-20 -84 -51 -124 -107 -124c-11 0 -24 1 -37 5l-45 13c-15 4 -26 7 -33 7c-22 0 -35 -12 -44 -38h-58c18 81 51 120 105 120c11 0 26 -3 44 -8l46 -13c9 -3 18 -4 28 -4c22 0 36 14 43 42h58z
" />
    <glyph glyph-name="Scaron" unicode="&#x160;" horiz-adv-x="581" 
d="M108 231c57 -65 113 -98 170 -98c54 0 89 32 89 74c0 57 -39 74 -120 95c-129 34 -192 86 -192 198c0 133 97 232 247 232c80 0 150 -21 212 -64l-61 -140c-45 38 -93 57 -137 57c-48 0 -79 -26 -79 -60c0 -51 49 -62 114 -79c127 -34 197 -81 197 -213
c0 -149 -106 -252 -274 -252c-101 0 -177 32 -254 105zM134 962h75l82 -88l81 88h75l-89 -171h-135z" />
    <glyph glyph-name="Thorn" unicode="&#xde;" horiz-adv-x="634" 
d="M259 127v-127h-183v715h183v-109h21c97 0 172 0 231 -38c63 -41 100 -114 100 -206c0 -95 -35 -165 -99 -203c-49 -29 -104 -32 -171 -32h-82zM259 284h37c83 0 126 15 126 84s-45 83 -124 83h-39v-167z" />
    <glyph glyph-name="Uacute" unicode="&#xda;" horiz-adv-x="780" 
d="M72 715h194v-388c0 -127 23 -182 124 -182c119 0 124 74 124 227v343h194v-425c0 -216 -91 -309 -318 -309c-121 0 -205 28 -256 87c-57 65 -62 149 -62 261v386zM531 962l-151 -171h-75l89 171h137z" />
    <glyph glyph-name="Ucircumflex" unicode="&#xdb;" horiz-adv-x="780" 
d="M72 715h194v-388c0 -127 23 -182 124 -182c119 0 124 74 124 227v343h194v-425c0 -216 -91 -309 -318 -309c-121 0 -205 28 -256 87c-57 65 -62 149 -62 261v386zM233 791l89 171h135l89 -171h-75l-81 88l-82 -88h-75z" />
    <glyph glyph-name="Udieresis" unicode="&#xdc;" horiz-adv-x="780" 
d="M72 715h194v-388c0 -127 23 -182 124 -182c119 0 124 74 124 227v343h194v-425c0 -216 -91 -309 -318 -309c-121 0 -205 28 -256 87c-57 65 -62 149 -62 261v386zM224 882c0 36 33 69 71 69c39 0 69 -31 69 -69c0 -41 -29 -71 -69 -71c-39 0 -71 32 -71 71zM415 882
c0 36 32 69 70 69c39 0 70 -31 70 -69c0 -41 -30 -71 -70 -71c-39 0 -70 32 -70 71z" />
    <glyph glyph-name="Ugrave" unicode="&#xd9;" horiz-adv-x="780" 
d="M72 715h194v-388c0 -127 23 -182 124 -182c119 0 124 74 124 227v343h194v-425c0 -216 -91 -309 -318 -309c-121 0 -205 28 -256 87c-57 65 -62 149 -62 261v386zM249 962h137l89 -171h-75z" />
    <glyph glyph-name="Yacute" unicode="&#xdd;" horiz-adv-x="597" 
d="M203 0v326l-251 389h225l96 -184c5 -10 17 -28 24 -61c7 32 19 50 25 61l95 184h224l-250 -389v-326h-188zM440 962l-151 -171h-75l89 171h137z" />
    <glyph glyph-name="Ydieresis" unicode="&#x178;" horiz-adv-x="597" 
d="M203 0v326l-251 389h225l96 -184c5 -10 17 -28 24 -61c7 32 19 50 25 61l95 184h224l-250 -389v-326h-188zM133 882c0 36 33 69 71 69c39 0 69 -31 69 -69c0 -41 -29 -71 -69 -71c-39 0 -71 32 -71 71zM324 882c0 36 32 69 70 69c39 0 70 -31 70 -69
c0 -41 -30 -71 -70 -71c-39 0 -70 32 -70 71z" />
    <glyph glyph-name="Zcaron" unicode="&#x17d;" horiz-adv-x="677" 
d="M634 0h-632l361 560h-290v155h602l-360 -559h319v-156zM182 962h75l82 -88l81 88h75l-89 -171h-135z" />
    <glyph glyph-name="aacute" unicode="&#xe1;" horiz-adv-x="660" 
d="M593 493v-492h-160v79c-46 -69 -99 -99 -177 -99c-129 0 -217 102 -217 265c0 160 88 263 228 263c74 0 126 -30 165 -97v81h161zM440 247c0 76 -44 125 -115 125s-114 -49 -114 -125c0 -77 43 -124 114 -124s115 47 115 124zM471 731l-151 -171h-75l89 171h137z" />
    <glyph glyph-name="acircumflex" unicode="&#xe2;" horiz-adv-x="660" 
d="M593 493v-492h-160v79c-46 -69 -99 -99 -177 -99c-129 0 -217 102 -217 265c0 160 88 263 228 263c74 0 126 -30 165 -97v81h161zM440 247c0 76 -44 125 -115 125s-114 -49 -114 -125c0 -77 43 -124 114 -124s115 47 115 124zM173 560l89 171h135l89 -171h-75l-81 88
l-82 -88h-75z" />
    <glyph glyph-name="adieresis" unicode="&#xe4;" horiz-adv-x="660" 
d="M593 493v-492h-160v79c-46 -69 -99 -99 -177 -99c-129 0 -217 102 -217 265c0 160 88 263 228 263c74 0 126 -30 165 -97v81h161zM440 247c0 76 -44 125 -115 125s-114 -49 -114 -125c0 -77 43 -124 114 -124s115 47 115 124zM164 651c0 36 33 69 71 69
c39 0 69 -31 69 -69c0 -41 -29 -71 -69 -71c-39 0 -71 32 -71 71zM355 651c0 36 32 69 70 69c39 0 70 -31 70 -69c0 -41 -30 -71 -70 -71c-39 0 -70 32 -70 71z" />
    <glyph glyph-name="agrave" unicode="&#xe0;" horiz-adv-x="660" 
d="M593 493v-492h-160v79c-46 -69 -99 -99 -177 -99c-129 0 -217 102 -217 265c0 160 88 263 228 263c74 0 126 -30 165 -97v81h161zM440 247c0 76 -44 125 -115 125s-114 -49 -114 -125c0 -77 43 -124 114 -124s115 47 115 124zM189 731h137l89 -171h-75z" />
    <glyph glyph-name="aring" unicode="&#xe5;" horiz-adv-x="660" 
d="M593 493v-492h-160v79c-46 -69 -99 -99 -177 -99c-129 0 -217 102 -217 265c0 160 88 263 228 263c74 0 126 -30 165 -97v81h161zM440 247c0 76 -44 125 -115 125s-114 -49 -114 -125c0 -77 43 -124 114 -124s115 47 115 124zM204 669c0 72 58 130 130 130
c71 0 129 -58 129 -130s-57 -130 -129 -130s-130 58 -130 130zM279 669c0 -30 25 -55 55 -55c31 0 54 25 54 55c0 31 -23 55 -54 55c-30 0 -55 -25 -55 -55z" />
    <glyph glyph-name="atilde" unicode="&#xe3;" horiz-adv-x="660" 
d="M593 493v-492h-160v79c-46 -69 -99 -99 -177 -99c-129 0 -217 102 -217 265c0 160 88 263 228 263c74 0 126 -30 165 -97v81h161zM440 247c0 76 -44 125 -115 125s-114 -49 -114 -125c0 -77 43 -124 114 -124s115 47 115 124zM492 719c-20 -84 -51 -124 -107 -124
c-11 0 -24 1 -37 5l-45 13c-15 4 -26 7 -33 7c-22 0 -35 -12 -44 -38h-58c18 81 51 120 105 120c11 0 26 -3 44 -8l46 -13c9 -3 18 -4 28 -4c22 0 36 14 43 42h58z" />
    <glyph glyph-name="brokenbar" unicode="&#xa6;" 
d="M192 699h117v-370h-117v370zM192 199h117v-370h-117v370z" />
    <glyph glyph-name="ccedilla" unicode="&#xe7;" horiz-adv-x="461" 
d="M418 331c-33 29 -63 43 -98 43c-67 0 -113 -47 -113 -127c0 -74 44 -124 117 -124c37 0 65 13 94 43v-151c-40 -22 -81 -34 -127 -34c-146 0 -255 101 -255 265c0 155 107 263 257 263c47 0 86 -8 125 -31v-147zM151 -215v68c61 -17 106 -22 132 -22c28 0 42 11 42 35
c0 22 -19 31 -58 31c-8 0 -17 0 -27 -1v104h56v-41h9c73 0 112 -34 112 -94c0 -63 -43 -102 -124 -102c-37 0 -85 6 -142 22z" />
    <glyph glyph-name="copyright" unicode="&#xa9;" horiz-adv-x="833" 
d="M416 725c100 0 190 -37 260 -107c69 -69 105 -159 105 -258c0 -100 -36 -189 -104 -256c-72 -71 -165 -109 -261 -109s-187 38 -257 108s-107 160 -107 257c0 96 38 188 108 259c68 69 156 106 256 106zM417 659c-82 0 -154 -30 -210 -87c-57 -58 -89 -133 -89 -212
c0 -78 32 -153 89 -210s131 -88 210 -88c78 0 154 31 213 89c56 55 85 127 85 209c0 81 -30 155 -86 211c-57 57 -130 88 -212 88zM596 435h-104c-4 44 -32 69 -76 69c-52 0 -86 -50 -86 -143c0 -92 32 -139 91 -139c43 0 70 27 74 76h105c-4 -93 -75 -155 -181 -155
c-123 0 -201 81 -201 214c0 136 79 220 200 220c103 0 173 -57 178 -142z" />
    <glyph glyph-name="degree" unicode="&#xb0;" horiz-adv-x="329" 
d="M165 716c83 0 152 -67 152 -152c0 -83 -68 -152 -153 -152c-84 0 -151 67 -151 152c0 86 68 152 152 152zM165 645c-44 0 -81 -35 -81 -80s35 -81 81 -81c45 0 80 37 80 81s-35 80 -80 80z" />
    <glyph glyph-name="divide" unicode="&#xf7;" horiz-adv-x="833" 
d="M417 577c43 0 80 -36 80 -81c0 -43 -35 -80 -81 -80c-45 0 -80 36 -80 80c0 45 37 81 81 81zM124 355h585v-113h-585v113zM417 181c44 0 80 -36 80 -81c0 -43 -34 -80 -80 -80c-44 0 -81 35 -81 80s37 81 81 81z" />
    <glyph glyph-name="eacute" unicode="&#xe9;" horiz-adv-x="611" 
d="M575 212h-375c1 -77 41 -119 111 -119c53 0 89 20 108 59l131 -53c-31 -74 -112 -118 -229 -118c-180 0 -285 111 -285 260s111 268 275 268c160 0 264 -108 264 -289v-8zM404 310c-6 57 -47 93 -99 93c-56 0 -91 -31 -101 -93h200zM447 731l-151 -171h-75l89 171h137z
" />
    <glyph glyph-name="ecircumflex" unicode="&#xea;" horiz-adv-x="611" 
d="M575 212h-375c1 -77 41 -119 111 -119c53 0 89 20 108 59l131 -53c-31 -74 -112 -118 -229 -118c-180 0 -285 111 -285 260s111 268 275 268c160 0 264 -108 264 -289v-8zM404 310c-6 57 -47 93 -99 93c-56 0 -91 -31 -101 -93h200zM149 560l89 171h135l89 -171h-75
l-81 88l-82 -88h-75z" />
    <glyph glyph-name="edieresis" unicode="&#xeb;" horiz-adv-x="611" 
d="M575 212h-375c1 -77 41 -119 111 -119c53 0 89 20 108 59l131 -53c-31 -74 -112 -118 -229 -118c-180 0 -285 111 -285 260s111 268 275 268c160 0 264 -108 264 -289v-8zM404 310c-6 57 -47 93 -99 93c-56 0 -91 -31 -101 -93h200zM140 651c0 36 33 69 71 69
c39 0 69 -31 69 -69c0 -41 -29 -71 -69 -71c-39 0 -71 32 -71 71zM331 651c0 36 32 69 70 69c39 0 70 -31 70 -69c0 -41 -30 -71 -70 -71c-39 0 -70 32 -70 71z" />
    <glyph glyph-name="egrave" unicode="&#xe8;" horiz-adv-x="611" 
d="M575 212h-375c1 -77 41 -119 111 -119c53 0 89 20 108 59l131 -53c-31 -74 -112 -118 -229 -118c-180 0 -285 111 -285 260s111 268 275 268c160 0 264 -108 264 -289v-8zM404 310c-6 57 -47 93 -99 93c-56 0 -91 -31 -101 -93h200zM165 731h137l89 -171h-75z" />
    <glyph glyph-name="eth" unicode="&#xf0;" horiz-adv-x="623" 
d="M398 439c-29 48 -65 89 -107 124l-145 -67l-34 62l118 52c-29 17 -55 32 -79 44l58 102c48 -21 98 -50 153 -87l153 71l35 -63l-128 -58c111 -105 165 -218 165 -351c0 -180 -101 -287 -276 -287c-160 0 -275 114 -275 246c0 136 113 245 253 245c39 0 73 -10 109 -33z
M414 231c0 64 -38 106 -103 106s-103 -42 -103 -106c0 -63 39 -105 103 -105s103 42 103 105z" />
    <glyph glyph-name="iacute" unicode="&#xed;" horiz-adv-x="312" 
d="M69 0v493h174v-493h-174zM297 731l-151 -171h-75l89 171h137z" />
    <glyph glyph-name="icircumflex" unicode="&#xee;" horiz-adv-x="312" 
d="M69 0v493h174v-493h-174zM-1 560l89 171h135l89 -171h-75l-81 88l-82 -88h-75z" />
    <glyph glyph-name="idieresis" unicode="&#xef;" horiz-adv-x="312" 
d="M69 0v493h174v-493h-174zM-10 651c0 36 33 69 71 69c39 0 69 -31 69 -69c0 -41 -29 -71 -69 -71c-39 0 -71 32 -71 71zM181 651c0 36 32 69 70 69c39 0 70 -31 70 -69c0 -41 -30 -71 -70 -71c-39 0 -70 32 -70 71z" />
    <glyph glyph-name="igrave" unicode="&#xec;" horiz-adv-x="312" 
d="M69 0v493h174v-493h-174zM15 731h137l89 -171h-75z" />
    <glyph glyph-name="logicalnot" unicode="&#xac;" horiz-adv-x="833" 
d="M124 423h585v-245h-112v134h-473v111z" />
    <glyph glyph-name="minus" unicode="&#x2212;" horiz-adv-x="833" 
d="M124 356h585v-115h-585v115z" />
    <glyph glyph-name="mu" unicode="&#xb5;" horiz-adv-x="642" 
d="M94 532h175l-39 -258c-4 -27 -6 -51 -6 -70c0 -55 23 -83 70 -83c59 0 89 46 104 141l43 270h174l-85 -532h-157l9 61c-26 -48 -56 -69 -102 -69c-38 0 -70 20 -90 59l-40 -260h-172z" />
    <glyph glyph-name="multiply" unicode="&#xd7;" horiz-adv-x="833" 
d="M210 593l215 -215l215 215l79 -79l-215 -216l215 -215l-79 -79l-215 215l-215 -215l-79 79l215 215l-215 216z" />
    <glyph glyph-name="ntilde" unicode="&#xf1;" horiz-adv-x="653" 
d="M64 0v493h159v-100c47 81 103 116 189 116c64 0 116 -22 146 -60c33 -42 36 -96 36 -167v-282h-174v264c0 77 -23 113 -81 113c-78 0 -104 -59 -104 -170v-207h-171zM489 719c-20 -84 -51 -124 -107 -124c-11 0 -24 1 -37 5l-45 13c-15 4 -26 7 -33 7
c-22 0 -35 -12 -44 -38h-58c18 81 51 120 105 120c11 0 26 -3 44 -8l46 -13c9 -3 18 -4 28 -4c22 0 36 14 43 42h58z" />
    <glyph glyph-name="oacute" unicode="&#xf3;" horiz-adv-x="623" 
d="M587 245c0 -146 -120 -264 -276 -264c-157 0 -275 119 -275 264c0 146 119 264 275 264s276 -118 276 -264zM414 245c0 73 -39 119 -103 119s-103 -46 -103 -119s39 -118 103 -118s103 45 103 118zM453 731l-151 -171h-75l89 171h137z" />
    <glyph glyph-name="ocircumflex" unicode="&#xf4;" horiz-adv-x="623" 
d="M587 245c0 -146 -120 -264 -276 -264c-157 0 -275 119 -275 264c0 146 119 264 275 264s276 -118 276 -264zM414 245c0 73 -39 119 -103 119s-103 -46 -103 -119s39 -118 103 -118s103 45 103 118zM155 560l89 171h135l89 -171h-75l-81 88l-82 -88h-75z" />
    <glyph glyph-name="odieresis" unicode="&#xf6;" horiz-adv-x="623" 
d="M587 245c0 -146 -120 -264 -276 -264c-157 0 -275 119 -275 264c0 146 119 264 275 264s276 -118 276 -264zM414 245c0 73 -39 119 -103 119s-103 -46 -103 -119s39 -118 103 -118s103 45 103 118zM146 651c0 36 33 69 71 69c39 0 69 -31 69 -69c0 -41 -29 -71 -69 -71
c-39 0 -71 32 -71 71zM337 651c0 36 32 69 70 69c39 0 70 -31 70 -69c0 -41 -30 -71 -70 -71c-39 0 -70 32 -70 71z" />
    <glyph glyph-name="ograve" unicode="&#xf2;" horiz-adv-x="623" 
d="M587 245c0 -146 -120 -264 -276 -264c-157 0 -275 119 -275 264c0 146 119 264 275 264s276 -118 276 -264zM414 245c0 73 -39 119 -103 119s-103 -46 -103 -119s39 -118 103 -118s103 45 103 118zM171 731h137l89 -171h-75z" />
    <glyph glyph-name="onehalf" unicode="&#xbd;" horiz-adv-x="955" 
d="M151 309v306h-96l53 90h155v-396h-112zM227 -19l408 741h92l-410 -741h-90zM917 0h-344l202 213c24 25 36 46 36 64c0 28 -21 48 -54 48c-38 0 -60 -23 -60 -64v-5h-108v3c0 90 65 146 167 146c104 0 165 -54 165 -127c0 -42 -22 -75 -61 -113l-81 -80h138v-85z" />
    <glyph glyph-name="onequarter" unicode="&#xbc;" horiz-adv-x="955" 
d="M151 309v306h-96l53 90h155v-396h-112zM227 -19l408 741h92l-410 -741h-90zM783 0v90h-205v79l168 229h139v-229h50v-79h-50v-90h-102zM783 169v116c0 15 0 30 3 45c-12 -24 -24 -40 -31 -49l-82 -112h110z" />
    <glyph glyph-name="onesuperior" unicode="&#xb9;" horiz-adv-x="413" 
d="M158 281v328h-101l55 97h163v-425h-117z" />
    <glyph glyph-name="otilde" unicode="&#xf5;" horiz-adv-x="623" 
d="M587 245c0 -146 -120 -264 -276 -264c-157 0 -275 119 -275 264c0 146 119 264 275 264s276 -118 276 -264zM414 245c0 73 -39 119 -103 119s-103 -46 -103 -119s39 -118 103 -118s103 45 103 118zM474 719c-20 -84 -51 -124 -107 -124c-11 0 -24 1 -37 5l-45 13
c-15 4 -26 7 -33 7c-22 0 -35 -12 -44 -38h-58c18 81 51 120 105 120c11 0 26 -3 44 -8l46 -13c9 -3 18 -4 28 -4c22 0 36 14 43 42h58z" />
    <glyph glyph-name="plusminus" unicode="&#xb1;" horiz-adv-x="833" 
d="M359 606h116v-156h234v-113h-234v-156h-116v156h-235v113h235v156zM124 104h585v-113h-585v113z" />
    <glyph glyph-name="registered" unicode="&#xae;" horiz-adv-x="833" 
d="M416 725c101 0 193 -38 263 -110c67 -68 102 -158 102 -255c0 -101 -38 -192 -108 -259c-72 -69 -163 -106 -257 -106c-98 0 -189 39 -259 111c-68 70 -105 159 -105 254c0 97 39 191 111 262c68 67 155 103 253 103zM417 659c-81 0 -152 -29 -208 -84
c-59 -59 -90 -135 -90 -215c0 -78 29 -150 85 -207c57 -59 132 -91 212 -91c78 0 153 30 211 86c57 55 88 130 88 212c0 80 -29 153 -84 209c-58 59 -132 90 -214 90zM262 568h161c115 0 173 -41 173 -116c0 -52 -31 -92 -85 -108l89 -176h-121l-75 159h-32v-159h-110v400z
M372 499v-107h39c48 0 72 17 72 52c0 39 -25 55 -78 55h-33z" />
    <glyph glyph-name="scaron" unicode="&#x161;" horiz-adv-x="484" 
d="M18 41l36 133c51 -45 116 -69 176 -69c44 0 67 15 67 41c0 41 -40 41 -105 58c-102 27 -149 72 -149 147c0 90 71 158 200 158c65 0 129 -15 197 -45l-36 -120c-48 33 -96 48 -142 48c-40 0 -60 -13 -60 -36c0 -34 44 -36 113 -57c94 -28 140 -70 140 -149
c0 -99 -81 -169 -212 -169c-85 0 -158 19 -225 60zM85 731h75l82 -88l81 88h75l-89 -171h-135z" />
    <glyph glyph-name="thorn" unicode="&#xfe;" horiz-adv-x="660" 
d="M226 80c5 -32 5 -61 5 -88v-210h-166v975h166v-264c0 -24 0 -52 -6 -83c46 67 96 99 167 99c135 0 227 -99 227 -264c0 -160 -92 -264 -221 -264c-81 0 -128 24 -172 99zM219 245c0 -76 43 -124 113 -124s114 48 114 124c0 77 -44 124 -114 124c-71 0 -113 -47 -113 -124
z" />
    <glyph glyph-name="threequarters" unicode="&#xbe;" horiz-adv-x="955" 
d="M26 442h114v-7c0 -35 19 -53 55 -53c37 0 58 18 58 50c0 38 -21 54 -67 54c-4 0 -8 0 -13 -1v65h6c41 0 64 17 64 47c0 24 -21 41 -50 41c-30 0 -49 -15 -49 -43h-109c2 74 60 118 164 118c95 0 148 -41 148 -103c0 -40 -25 -70 -71 -82c57 -8 89 -45 89 -99
c0 -77 -69 -131 -168 -131c-105 0 -171 54 -171 138v6zM227 -19l408 741h92l-410 -741h-90zM783 0v90h-205v79l168 229h139v-229h50v-79h-50v-90h-102zM783 169v116c0 15 0 30 3 45c-12 -24 -24 -40 -31 -49l-82 -112h110z" />
    <glyph glyph-name="threesuperior" unicode="&#xb3;" horiz-adv-x="413" 
d="M27 423h120v-7c0 -37 19 -57 57 -57c40 0 61 19 61 54c0 40 -21 58 -70 58c-4 0 -9 0 -14 -1v69h6c44 0 68 18 68 50c0 27 -23 45 -52 45c-33 0 -53 -17 -53 -46h-114c2 79 64 126 173 126c99 0 155 -44 155 -110c0 -43 -27 -75 -75 -88c59 -9 93 -49 93 -106
c0 -83 -72 -140 -176 -140c-110 0 -179 57 -179 147v6z" />
    <glyph glyph-name="trademark" unicode="&#x2122;" horiz-adv-x="833" 
d="M92 715h245v-62h-80v-207h-85v207h-80v62zM389 715h109l55 -148l56 148h108v-269h-76v190l-71 -190h-32l-73 190v-190h-76v269z" />
    <glyph glyph-name="twosuperior" unicode="&#xb2;" horiz-adv-x="413" 
d="M373 281h-360l211 228c25 27 38 49 38 69c0 30 -22 51 -57 51c-39 0 -62 -24 -62 -68v-6h-114v3c0 97 68 157 175 157c110 0 174 -58 174 -136c0 -45 -24 -80 -64 -122l-86 -85h145v-91z" />
    <glyph glyph-name="uacute" unicode="&#xfa;" horiz-adv-x="631" 
d="M570 493v-252c0 -77 -2 -138 -59 -195c-44 -44 -109 -65 -196 -65s-151 21 -197 65c-55 53 -58 115 -58 195v252h166v-263c0 -77 21 -117 87 -117s87 40 87 117v263h170zM457 731l-151 -171h-75l89 171h137z" />
    <glyph glyph-name="ucircumflex" unicode="&#xfb;" horiz-adv-x="631" 
d="M570 493v-252c0 -77 -2 -138 -59 -195c-44 -44 -109 -65 -196 -65s-151 21 -197 65c-55 53 -58 115 -58 195v252h166v-263c0 -77 21 -117 87 -117s87 40 87 117v263h170zM159 560l89 171h135l89 -171h-75l-81 88l-82 -88h-75z" />
    <glyph glyph-name="udieresis" unicode="&#xfc;" horiz-adv-x="631" 
d="M570 493v-252c0 -77 -2 -138 -59 -195c-44 -44 -109 -65 -196 -65s-151 21 -197 65c-55 53 -58 115 -58 195v252h166v-263c0 -77 21 -117 87 -117s87 40 87 117v263h170zM150 651c0 36 33 69 71 69c39 0 69 -31 69 -69c0 -41 -29 -71 -69 -71c-39 0 -71 32 -71 71z
M341 651c0 36 32 69 70 69c39 0 70 -31 70 -69c0 -41 -30 -71 -70 -71c-39 0 -70 32 -70 71z" />
    <glyph glyph-name="ugrave" unicode="&#xf9;" horiz-adv-x="631" 
d="M570 493v-252c0 -77 -2 -138 -59 -195c-44 -44 -109 -65 -196 -65s-151 21 -197 65c-55 53 -58 115 -58 195v252h166v-263c0 -77 21 -117 87 -117s87 40 87 117v263h170zM175 731h137l89 -171h-75z" />
    <glyph glyph-name="yacute" unicode="&#xfd;" horiz-adv-x="532" 
d="M37 -218l139 293l-199 418h193l69 -178c6 -16 16 -41 23 -78c8 39 17 63 23 78l70 178h186l-310 -711h-194zM407 731l-151 -171h-75l89 171h137z" />
    <glyph glyph-name="ydieresis" unicode="&#xff;" horiz-adv-x="532" 
d="M37 -218l139 293l-199 418h193l69 -178c6 -16 16 -41 23 -78c8 39 17 63 23 78l70 178h186l-310 -711h-194zM100 651c0 36 33 69 71 69c39 0 69 -31 69 -69c0 -41 -29 -71 -69 -71c-39 0 -71 32 -71 71zM291 651c0 36 32 69 70 69c39 0 70 -31 70 -69
c0 -41 -30 -71 -70 -71c-39 0 -70 32 -70 71z" />
    <glyph glyph-name="zcaron" unicode="&#x17e;" horiz-adv-x="542" 
d="M500 0h-500l253 366h-222v127h491l-262 -359h240v-134zM114 731h75l82 -88l81 88h75l-89 -171h-135z" />
    </font>
</defs>
</svg>
