<?xml version="1.0" encoding="UTF-8" standalone="no"?>
<svg
   xmlns:dc="http://purl.org/dc/elements/1.1/"
   xmlns:cc="http://creativecommons.org/ns#"
   xmlns:rdf="http://www.w3.org/1999/02/22-rdf-syntax-ns#"
   xmlns:svg="http://www.w3.org/2000/svg"
   xmlns="http://www.w3.org/2000/svg"
   id="svg521"
   xml:space="preserve"
   style="enable-background:new 0 0 1080 1080;"
   viewBox="0 0 1080 1080"
   y="0px"
   x="0px"
   version="1.1"><metadata
     id="metadata527"><rdf:RDF><cc:Work
         rdf:about=""><dc:format>image/svg+xml</dc:format><dc:type
           rdf:resource="http://purl.org/dc/dcmitype/StillImage" /><dc:title></dc:title></cc:Work></rdf:RDF></metadata><defs
     id="defs525"><clipPath
       id="clipPath16"
       clipPathUnits="userSpaceOnUse"><path
         id="path18"
         d="M 0,38 38,38 38,0 0,0 0,38 Z" /></clipPath></defs><style
     id="style425"
     type="text/css">
	.st0{display:none;}
	.st1{display:inline;fill:#516D51;}
	.st2{fill:#56BC58;}
	.st3{display:inline;}
	.st4{fill:#FFFFFF;}
</style><g
     id="Layer_9"><rect
       id="rect427"
       height="1080"
       width="1080" /></g><g
     id="Layer_10" /><g
     class="st0"
     id="Layer_11"><circle
       id="circle431"
       r="540"
       cy="540"
       cx="540"
       class="st1" /></g><g
     class="st0"
     id="Layer_3"><g
       id="g511"
       class="st3"><path
         id="path463"
         d="M308.1,525.4c-21.9,0-34-11.4-34-32.2v-61.9c0-20.8,12.1-32.2,34-32.2h27.4v19.1h-29.1c-6.4,0-11.3,4.3-11.3,9.9v68.5    c0,5.6,4.8,9.9,11.3,9.9h29.1v19.1H308.1z" /><path
         id="path465"
         d="M308.1,522.4c-19.8,0-31-9.6-31-29.2v-61.9c0-19.6,11.2-29.2,31-29.2h24.4v13.1h-26.1c-8.6,0-14.3,6-14.3,12.9v68.5    c0,6.9,5.7,12.9,14.3,12.9h26.1v13.1H308.1z" /><path
         id="path467"
         d="M394.2,525.4c-21.9,0-34-11.4-34-32.2v-61.9c0-20.8,12.1-32.2,34-32.2h6.9c21.9,0,34,11.4,34,32.2v61.9    c0,20.8-12.1,32.2-34,32.2H394.2z M392.5,418.1c-6.4,0-11.3,4.3-11.3,9.9v68.5c0,5.6,4.8,9.9,11.3,9.9h10.3    c6.4,0,11.3-4.3,11.3-9.9V428c0-5.6-4.8-9.9-11.3-9.9H392.5z" /><path
         id="path469"
         d="M401.1,522.4h-6.9c-19.8,0-31-9.6-31-29.2v-61.9c0-19.6,11.2-29.2,31-29.2h6.9c19.8,0,31,9.6,31,29.2v61.9    C432.1,512.8,420.9,522.4,401.1,522.4z M417.1,428c0-6.9-5.7-12.9-14.3-12.9h-10.3c-8.6,0-14.3,6-14.3,12.9v68.5    c0,6.9,5.7,12.9,14.3,12.9h10.3c8.6,0,14.3-6,14.3-12.9V428z" /><path
         id="path471"
         d="M455.2,525.4V399h36.4c23.1,0,34.3,9.8,34.3,29.8v66.4c0,21.2-9.6,30.2-32.2,30.2H455.2z M495.2,506.5    c7.2,0,9.7-2.5,9.7-9.6v-69.7c0-5.8-3.7-9.4-9.6-9.4h-19.2v88.6H495.2z" /><path
         id="path473"
         d="M493.7,522.4h-35.4V402h33.4c19.8,0,31.3,7.1,31.3,26.8v66.4C522.9,515,514.3,522.4,493.7,522.4z M507.9,427.3    c0-7.6-5.2-12.4-12.6-12.4h-22.2v94.6h22c8.8,0,12.7-3.8,12.7-12.6V427.3z" /><polygon
         id="polygon475"
         points="557.4,525.4 557.4,506.8 572.9,506.8 572.9,417.6 557.4,417.6 557.4,399 609.3,399 609.3,417.6 593.8,417.6     593.8,506.8 609.3,506.8 609.3,525.4   " /><path
         id="path477"
         d="M560.4,522.4v-12.6h15.5v-95.3h-15.5V402h45.9v12.6h-15.5v95.3h15.5v12.6H560.4z" /><polygon
         id="polygon479"
         points="682.1,525.4 660.4,439 660.4,525.4 640.5,525.4 640.5,399 670.2,399 692.1,485.5 692.1,399 712,399 712,525.4       " /><path
         id="path481"
         d="M684.4,522.4l-27-107.7v107.7h-13.9V402h24.4l27.2,107.7V402H709v120.4H684.4z" /><path
         id="path483"
         d="M769.9,525.4c-21.9,0-34-11.4-34-32.2v-61.9c0-20.8,12.1-32.2,34-32.2h27.3v19.1h-29c-6.4,0-11.3,4.3-11.3,9.9v68.5    c0,5.6,4.8,9.9,11.3,9.9H782V475h-15v-18.9h35.2v69.3H769.9z" /><path
         id="path485"
         d="M769.9,522.4c-19.8,0-31-9.6-31-29.2v-61.9c0-19.6,11.2-29.2,31-29.2h24.3v13.1h-26c-8.6,0-14.3,6-14.3,12.9v68.5    c0,6.9,5.7,12.9,14.3,12.9H785V472h-15v-12.9h29.2v63.3H769.9z" /><path
         id="path487"
         d="M305.5,731.8c-21.9,0-34-11.4-34-32.2v-61.9c0-20.8,12.1-32.2,34-32.2h27.3v19.1h-29c-6.4,0-11.3,4.3-11.3,9.9v68.5    c0,5.6,4.8,9.9,11.3,9.9h13.9v-31.3h-15v-18.9h35.2v69.3H305.5z" /><path
         id="path489"
         d="M305.5,728.8c-19.8,0-31-9.6-31-29.2v-61.9c0-19.6,11.2-29.2,31-29.2h24.3v13.1h-26c-8.6,0-14.3,6-14.3,12.9v68.5    c0,6.9,5.7,12.9,14.3,12.9h16.9v-37.3h-15v-12.9h29.2v63.3H305.5z" /><path
         id="path491"
         d="M418.6,731.8l-6.5-30.4h-28.7l-6.7,30.4h-21.5l30.5-126.4h24.5l30,126.4H418.6z M408.1,682.5l-10.4-48.3l-10.2,48.3H408.1    z" /><path
         id="path493"
         d="M421.1,728.8l-6.5-30.4H381l-6.7,30.4H359L388,608.4h19.8l28.6,120.4H421.1z M397.7,619.8l-13.9,65.7h28L397.7,619.8z" /><path
         id="path495"
         d="M508.2,731.8L486,681.9h-11.9v49.9h-21V605.4h35.3c21.6,0,32.6,10,32.6,29.8v16.5c0,13-4.9,21.7-14.4,25.9l24.5,54.1    H508.2z M490.6,663c7.1,0,9.6-2.4,9.6-9.6v-19.8c0-6.9-2.5-9.4-9.6-9.4h-16.4V663H490.6z" /><path
         id="path497"
         d="M510.2,728.8L488,678.9h-16.9v49.9h-15V608.4h32.3c18.9,0,29.6,7.9,29.6,26.8v16.5c0,13.6-5.7,21.2-15.5,24.3l23.9,52.8    H510.2z M503.1,633.7c0-8.8-4-12.4-12.6-12.4h-19.4V666h19.4c8.8,0,12.6-3.8,12.6-12.6V633.7z" /><path
         id="path499"
         d="M548.1,731.8V605.4h36.4c23.1,0,34.3,9.8,34.3,29.8v66.4c0,21.2-9.6,30.2-32.2,30.2H548.1z M588.1,712.9    c7.2,0,9.7-2.5,9.7-9.6v-69.7c0-5.8-3.7-9.4-9.6-9.4h-19.2v88.6H588.1z" /><path
         id="path501"
         d="M586.5,728.8h-35.4V608.4h33.4c19.8,0,31.3,7.1,31.3,26.8v66.4C615.8,721.4,607.2,728.8,586.5,728.8z M600.8,633.7    c0-7.6-5.2-12.4-12.6-12.4h-22.2v94.6h22c8.8,0,12.7-3.8,12.7-12.6V633.7z" /><polygon
         id="polygon503"
         points="644.6,731.8 644.6,605.4 708,605.4 708,624 665.6,624 665.6,657.3 703.7,657.3 703.7,675.9 665.6,675.9     665.6,713.2 708,713.2 708,731.8   " /><path
         id="path505"
         d="M647.6,728.8V608.4H705V621h-42.5v39.4h38.2v12.6h-38.2v43.3H705v12.6H647.6z" /><polygon
         id="polygon507"
         points="774.9,731.8 753.3,645.4 753.3,731.8 733.3,731.8 733.3,605.4 763.1,605.4 784.9,691.9 784.9,605.4 804.9,605.4     804.9,731.8   " /><path
         id="path509"
         d="M777.3,728.8l-27-107.7v107.7h-13.9V608.4h24.4l27.2,107.7V608.4h13.9v120.4H777.3z" /></g></g><g
     id="Layer_1"><g
       id="g518"><path
         id="path514"
         d="M142.1,515c60.4,0,68.9-33.2,68.9-62.9c0-23.8-3.4-47.6-6.8-71.4c-3.4-23.8-6.8-46.8-6.8-70.6    c0-78.2,51-111.4,123.3-111.4h17.9v46.8h-15.3c-50.2,0-67.2,27.2-67.2,73.1c0,19.6,2.5,40,5.9,60.4c3.4,21.2,6,41.7,6,64.6    c0.9,54.4-23,81.6-61.2,91.8v1.7c38.2,9.4,62.1,38.3,61.2,92.7c0,22.9-2.5,44.2-6,64.6c-3.4,21.2-5.9,40.8-5.9,61.2    c0,47.6,19.5,74,67.2,74h15.3v46.8h-17.9c-70.6,0-123.3-30.6-123.3-116.5c0-23,3.4-46.8,6.8-69.7s6.8-45.9,6.8-68.9    c0-26.4-8.5-62.9-68.9-62.9V515z"
         class="st4" /><path
         id="path516"
         d="M937.7,558.4c-60.4,0-68.9,36.5-68.9,62.9c0,22.9,3.4,45.9,6.8,68.9c3.4,23,6.8,46.8,6.8,69.7    c0,85.9-53.6,116.5-123.3,116.5h-17.9v-46.8h14.5c47.6-0.8,68-26.3,68-74c0-20.4-3.4-40-6-61.2c-3.4-20.4-6.8-41.7-6.8-64.6    c0-54.4,23.8-83.3,61.2-92.7v-1.7C834.8,525.2,811,498,811,443.6c0-22.9,3.4-43.4,6.8-64.6c2.5-20.4,6-40.8,6-60.4    c0-45.9-17.9-72.3-67.2-73.1h-15.3v-46.8h17c72.3,0,124.1,33.1,124.1,111.4c0,23.8-3.4,46.8-6.8,70.6c-3.4,23.8-6.8,47.6-6.8,71.4    c0,29.8,8.5,62.9,68.9,62.9V558.4z"
         class="st4" /></g></g><g
     transform="matrix(11.497056,0,0,-11.497056,321.55594,769.94112)"
     id="g10"><g
       id="g12"><g
         clip-path="url(#clipPath16)"
         id="g14"><g
           transform="translate(28,29)"
           id="g20"><path
             id="path22"
             style="fill:#b4c3cc;fill-opacity:1;fill-rule:nonzero;stroke:none"
             d="M 0,0 C -0.701,0 -1.377,-0.106 -2.015,-0.298 -2.01,-0.198 -2,-0.101 -2,0 -2,3.313 -4.687,6 -8,6 -10.769,6 -13.093,4.122 -13.785,1.573 -14.471,1.846 -15.217,2 -16,2 c -3.314,0 -6,-2.686 -6,-6 0,-3.312 2.686,-6 6,-6 2.769,0 5.093,1.878 5.785,4.428 C -9.529,-5.845 -8.783,-6 -8,-6 c 0.375,0 0.74,0.039 1.096,0.104 C -6.962,-6.256 -7,-6.623 -7,-7 c 0,-3.865 3.135,-7 7,-7 3.865,0 7,3.135 7,7 0,3.866 -3.135,7 -7,7" /></g><g
           transform="translate(32,15)"
           id="g24"><path
             id="path26"
             style="fill:#8899a6;fill-opacity:1;fill-rule:nonzero;stroke:none"
             d="M 0,0 C -0.467,0 -0.91,-0.085 -1.339,-0.204 -1.123,0.322 -1,0.896 -1,1.5 -1,3.985 -3.015,6 -5.5,6 -6.519,6 -7.447,5.649 -8.201,5.079 -8.907,7.904 -11.456,10 -14.5,10 -17.338,10 -19.745,8.178 -20.631,5.643 -21.379,5.875 -22.175,6 -23,6 c -4.418,0 -8,-3.582 -8,-8 0,-4.419 3.582,-8 8,-8 H 0 c 2.762,0 5,2.238 5,5 0,2.762 -2.238,5 -5,5" /></g></g></g></g></svg>