<?xml version="1.0" encoding="UTF-8" standalone="no"?>
<svg
   xmlns:dc="http://purl.org/dc/elements/1.1/"
   xmlns:cc="http://creativecommons.org/ns#"
   xmlns:rdf="http://www.w3.org/1999/02/22-rdf-syntax-ns#"
   xmlns:svg="http://www.w3.org/2000/svg"
   xmlns="http://www.w3.org/2000/svg"
   xmlns:sodipodi="http://sodipodi.sourceforge.net/DTD/sodipodi-0.dtd"
   xmlns:inkscape="http://www.inkscape.org/namespaces/inkscape"
   inkscape:version="1.0 (4035a4f, 2020-05-01)"
   inkscape:export-ydpi="42.044445"
   inkscape:export-xdpi="42.044445"
   inkscape:export-filename="/Users/cj/dev/coding.garden/coding.garden/other-logos/pruners.png"
   sodipodi:docname="pruners.svg"
   id="svg106"
   xml:space="preserve"
   style="enable-background:new 0 0 1080 1080;"
   viewBox="0 0 1080 1080"
   y="0px"
   x="0px"
   version="1.1"><metadata
   id="metadata112"><rdf:RDF><cc:Work
       rdf:about=""><dc:format>image/svg+xml</dc:format><dc:type
         rdf:resource="http://purl.org/dc/dcmitype/StillImage" /><dc:title></dc:title></cc:Work></rdf:RDF></metadata><defs
   id="defs110" /><sodipodi:namedview
   inkscape:current-layer="svg106"
   inkscape:window-maximized="0"
   inkscape:window-y="23"
   inkscape:window-x="0"
   inkscape:cy="540"
   inkscape:cx="531.91837"
   inkscape:zoom="0.68055556"
   showgrid="false"
   id="namedview108"
   inkscape:window-height="999"
   inkscape:window-width="1558"
   inkscape:pageshadow="2"
   inkscape:pageopacity="0"
   guidetolerance="10"
   gridtolerance="10"
   objecttolerance="10"
   borderopacity="1"
   bordercolor="#666666"
   pagecolor="#ffffff" />
<style
   id="style10"
   type="text/css">
	.st0{display:none;}
	.st1{display:inline;fill:#516D51;}
	.st2{fill:#56BC58;}
	.st3{display:inline;}
	.st4{fill:#FFFFFF;}
</style>
<g
   id="Layer_9">
	<rect
   id="rect12"
   height="1080"
   width="1080" />
</g>
<g
   id="Layer_10">
</g>
<g
   class="st0"
   id="Layer_11">
	<circle
   id="circle16"
   r="540"
   cy="540"
   cx="540"
   class="st1" />
</g>

<g
   class="st0"
   id="Layer_3">
	<g
   id="g96"
   class="st3">
		<path
   id="path48"
   d="M308.1,525.4c-21.9,0-34-11.4-34-32.2v-61.9c0-20.8,12.1-32.2,34-32.2h27.4v19.1h-29.1c-6.4,0-11.3,4.3-11.3,9.9v68.5    c0,5.6,4.8,9.9,11.3,9.9h29.1v19.1H308.1z" />
		<path
   id="path50"
   d="M308.1,522.4c-19.8,0-31-9.6-31-29.2v-61.9c0-19.6,11.2-29.2,31-29.2h24.4v13.1h-26.1c-8.6,0-14.3,6-14.3,12.9v68.5    c0,6.9,5.7,12.9,14.3,12.9h26.1v13.1H308.1z" />
		<path
   id="path52"
   d="M394.2,525.4c-21.9,0-34-11.4-34-32.2v-61.9c0-20.8,12.1-32.2,34-32.2h6.9c21.9,0,34,11.4,34,32.2v61.9    c0,20.8-12.1,32.2-34,32.2H394.2z M392.5,418.1c-6.4,0-11.3,4.3-11.3,9.9v68.5c0,5.6,4.8,9.9,11.3,9.9h10.3    c6.4,0,11.3-4.3,11.3-9.9V428c0-5.6-4.8-9.9-11.3-9.9H392.5z" />
		<path
   id="path54"
   d="M401.1,522.4h-6.9c-19.8,0-31-9.6-31-29.2v-61.9c0-19.6,11.2-29.2,31-29.2h6.9c19.8,0,31,9.6,31,29.2v61.9    C432.1,512.8,420.9,522.4,401.1,522.4z M417.1,428c0-6.9-5.7-12.9-14.3-12.9h-10.3c-8.6,0-14.3,6-14.3,12.9v68.5    c0,6.9,5.7,12.9,14.3,12.9h10.3c8.6,0,14.3-6,14.3-12.9V428z" />
		<path
   id="path56"
   d="M455.2,525.4V399h36.4c23.1,0,34.3,9.8,34.3,29.8v66.4c0,21.2-9.6,30.2-32.2,30.2H455.2z M495.2,506.5    c7.2,0,9.7-2.5,9.7-9.6v-69.7c0-5.8-3.7-9.4-9.6-9.4h-19.2v88.6H495.2z" />
		<path
   id="path58"
   d="M493.7,522.4h-35.4V402h33.4c19.8,0,31.3,7.1,31.3,26.8v66.4C522.9,515,514.3,522.4,493.7,522.4z M507.9,427.3    c0-7.6-5.2-12.4-12.6-12.4h-22.2v94.6h22c8.8,0,12.7-3.8,12.7-12.6V427.3z" />
		<polygon
   id="polygon60"
   points="557.4,525.4 557.4,506.8 572.9,506.8 572.9,417.6 557.4,417.6 557.4,399 609.3,399 609.3,417.6 593.8,417.6     593.8,506.8 609.3,506.8 609.3,525.4   " />
		<path
   id="path62"
   d="M560.4,522.4v-12.6h15.5v-95.3h-15.5V402h45.9v12.6h-15.5v95.3h15.5v12.6H560.4z" />
		<polygon
   id="polygon64"
   points="682.1,525.4 660.4,439 660.4,525.4 640.5,525.4 640.5,399 670.2,399 692.1,485.5 692.1,399 712,399 712,525.4       " />
		<path
   id="path66"
   d="M684.4,522.4l-27-107.7v107.7h-13.9V402h24.4l27.2,107.7V402H709v120.4H684.4z" />
		<path
   id="path68"
   d="M769.9,525.4c-21.9,0-34-11.4-34-32.2v-61.9c0-20.8,12.1-32.2,34-32.2h27.3v19.1h-29c-6.4,0-11.3,4.3-11.3,9.9v68.5    c0,5.6,4.8,9.9,11.3,9.9H782V475h-15v-18.9h35.2v69.3H769.9z" />
		<path
   id="path70"
   d="M769.9,522.4c-19.8,0-31-9.6-31-29.2v-61.9c0-19.6,11.2-29.2,31-29.2h24.3v13.1h-26c-8.6,0-14.3,6-14.3,12.9v68.5    c0,6.9,5.7,12.9,14.3,12.9H785V472h-15v-12.9h29.2v63.3H769.9z" />
		<path
   id="path72"
   d="M305.5,731.8c-21.9,0-34-11.4-34-32.2v-61.9c0-20.8,12.1-32.2,34-32.2h27.3v19.1h-29c-6.4,0-11.3,4.3-11.3,9.9v68.5    c0,5.6,4.8,9.9,11.3,9.9h13.9v-31.3h-15v-18.9h35.2v69.3H305.5z" />
		<path
   id="path74"
   d="M305.5,728.8c-19.8,0-31-9.6-31-29.2v-61.9c0-19.6,11.2-29.2,31-29.2h24.3v13.1h-26c-8.6,0-14.3,6-14.3,12.9v68.5    c0,6.9,5.7,12.9,14.3,12.9h16.9v-37.3h-15v-12.9h29.2v63.3H305.5z" />
		<path
   id="path76"
   d="M418.6,731.8l-6.5-30.4h-28.7l-6.7,30.4h-21.5l30.5-126.4h24.5l30,126.4H418.6z M408.1,682.5l-10.4-48.3l-10.2,48.3H408.1    z" />
		<path
   id="path78"
   d="M421.1,728.8l-6.5-30.4H381l-6.7,30.4H359L388,608.4h19.8l28.6,120.4H421.1z M397.7,619.8l-13.9,65.7h28L397.7,619.8z" />
		<path
   id="path80"
   d="M508.2,731.8L486,681.9h-11.9v49.9h-21V605.4h35.3c21.6,0,32.6,10,32.6,29.8v16.5c0,13-4.9,21.7-14.4,25.9l24.5,54.1    H508.2z M490.6,663c7.1,0,9.6-2.4,9.6-9.6v-19.8c0-6.9-2.5-9.4-9.6-9.4h-16.4V663H490.6z" />
		<path
   id="path82"
   d="M510.2,728.8L488,678.9h-16.9v49.9h-15V608.4h32.3c18.9,0,29.6,7.9,29.6,26.8v16.5c0,13.6-5.7,21.2-15.5,24.3l23.9,52.8    H510.2z M503.1,633.7c0-8.8-4-12.4-12.6-12.4h-19.4V666h19.4c8.8,0,12.6-3.8,12.6-12.6V633.7z" />
		<path
   id="path84"
   d="M548.1,731.8V605.4h36.4c23.1,0,34.3,9.8,34.3,29.8v66.4c0,21.2-9.6,30.2-32.2,30.2H548.1z M588.1,712.9    c7.2,0,9.7-2.5,9.7-9.6v-69.7c0-5.8-3.7-9.4-9.6-9.4h-19.2v88.6H588.1z" />
		<path
   id="path86"
   d="M586.5,728.8h-35.4V608.4h33.4c19.8,0,31.3,7.1,31.3,26.8v66.4C615.8,721.4,607.2,728.8,586.5,728.8z M600.8,633.7    c0-7.6-5.2-12.4-12.6-12.4h-22.2v94.6h22c8.8,0,12.7-3.8,12.7-12.6V633.7z" />
		<polygon
   id="polygon88"
   points="644.6,731.8 644.6,605.4 708,605.4 708,624 665.6,624 665.6,657.3 703.7,657.3 703.7,675.9 665.6,675.9     665.6,713.2 708,713.2 708,731.8   " />
		<path
   id="path90"
   d="M647.6,728.8V608.4H705V621h-42.5v39.4h38.2v12.6h-38.2v43.3H705v12.6H647.6z" />
		<polygon
   id="polygon92"
   points="774.9,731.8 753.3,645.4 753.3,731.8 733.3,731.8 733.3,605.4 763.1,605.4 784.9,691.9 784.9,605.4 804.9,605.4     804.9,731.8   " />
		<path
   id="path94"
   d="M777.3,728.8l-27-107.7v107.7h-13.9V608.4h24.4l27.2,107.7V608.4h13.9v120.4H777.3z" />
	</g>
</g>
<g
   id="Layer_1">
	<g
   id="g103">
		<path
   id="path99"
   d="M142.1,515c60.4,0,68.9-33.2,68.9-62.9c0-23.8-3.4-47.6-6.8-71.4c-3.4-23.8-6.8-46.8-6.8-70.6    c0-78.2,51-111.4,123.3-111.4h17.9v46.8h-15.3c-50.2,0-67.2,27.2-67.2,73.1c0,19.6,2.5,40,5.9,60.4c3.4,21.2,6,41.7,6,64.6    c0.9,54.4-23,81.6-61.2,91.8v1.7c38.2,9.4,62.1,38.3,61.2,92.7c0,22.9-2.5,44.2-6,64.6c-3.4,21.2-5.9,40.8-5.9,61.2    c0,47.6,19.5,74,67.2,74h15.3v46.8h-17.9c-70.6,0-123.3-30.6-123.3-116.5c0-23,3.4-46.8,6.8-69.7s6.8-45.9,6.8-68.9    c0-26.4-8.5-62.9-68.9-62.9V515z"
   class="st4" />
		<path
   id="path101"
   d="M937.7,558.4c-60.4,0-68.9,36.5-68.9,62.9c0,22.9,3.4,45.9,6.8,68.9c3.4,23,6.8,46.8,6.8,69.7    c0,85.9-53.6,116.5-123.3,116.5h-17.9v-46.8h14.5c47.6-0.8,68-26.3,68-74c0-20.4-3.4-40-6-61.2c-3.4-20.4-6.8-41.7-6.8-64.6    c0-54.4,23.8-83.3,61.2-92.7v-1.7C834.8,525.2,811,498,811,443.6c0-22.9,3.4-43.4,6.8-64.6c2.5-20.4,6-40.8,6-60.4    c0-45.9-17.9-72.3-67.2-73.1h-15.3v-46.8h17c72.3,0,124.1,33.1,124.1,111.4c0,23.8-3.4,46.8-6.8,70.6c-3.4,23.8-6.8,47.6-6.8,71.4    c0,29.8,8.5,62.9,68.9,62.9V558.4z"
   class="st4" />
	</g>
</g>
<g
   transform="matrix(1.9609823,0,0,1.9609823,296.80626,293.48265)"
   id="g311"
   style="clip-rule:evenodd;fill-rule:evenodd;stroke-linecap:round;stroke-linejoin:round;stroke-miterlimit:1.5"><g
     transform="matrix(0.856565,0.333528,-0.461343,1.18482,77.8083,-51.3566)"
     id="g218"><path
       d="m 171.473,116.454 c -0.295,-0.238 -25.955,8.992 -25.955,8.992 0,0 5.507,48.616 9.869,72.815 0,3.192 3.585,5.783 8,5.783 4.416,0 8,-2.591 8,-5.783 v -18.927 c 3.446,-6.354 3.04,-11.97 0,-17.082 5.075,-7.557 4.426,-14.325 0,-20.571 13.383,-11.363 10.734,-16.603 0.086,-25.227 z"
       style="fill:#0fa954"
       id="path216" /></g><path
     d="m 167.776,143.897 c 1.919,-0.122 3.154,-0.167 3.185,-0.086 5.142,13.77 4.994,20.861 -11.712,29.861 0.909,8.877 -1.657,17.112 -9.49,24.374 0.245,7.07 -1.999,13.86 -7.881,20.238 l -8.732,22.425 c -1.472,3.782 -5.738,5.657 -9.52,4.184 -3.782,-1.472 -5.657,-5.738 -4.185,-9.52 l 0.007,-0.026 c 3.242,0.377 6.459,-1.455 7.698,-4.638 l 8.732,-22.425 c 5.882,-6.378 8.126,-13.168 7.881,-20.238 7.833,-7.262 10.399,-15.497 9.49,-24.374 12.08,-6.508 15.502,-12.018 14.527,-19.775 z"
     style="fill:#0e7c3f"
     id="path220" /><g
     transform="matrix(0.856565,0.333528,-0.461343,1.18482,77.8083,-51.3566)"
     id="g224"><path
       d="m 171.473,116.454 c -0.295,-0.238 -25.955,8.992 -25.955,8.992 0,0 5.507,48.616 9.869,72.815 0,3.192 3.585,5.783 8,5.783 4.416,0 8,-2.591 8,-5.783 v -18.927 c 3.446,-6.354 3.04,-11.97 0,-17.082 5.075,-7.557 4.426,-14.325 0,-20.571 13.383,-11.363 10.734,-16.603 0.086,-25.227 z"
       style="fill:none;stroke:#000000;stroke-width:6.76px"
       id="path222" /></g><g
     transform="matrix(-0.7069,0.016151,-0.0406591,-1.77957,242.447,272.151)"
     id="g228"><path
       d="M 133.637,84.857 H 90.939 l 10.675,-11.5 h 27.753 z"
       style="fill:#bfbfbf"
       id="path226" /></g><path
     d="m 171.947,130.674 -26.056,0.596 -1.362,-7.969 30.183,-0.69 z"
     style="fill:#8c8c8c"
     id="path230" /><g
     transform="matrix(-0.7069,0.016151,-0.0406591,-1.77957,242.447,272.151)"
     id="g234"><path
       d="M 133.637,84.857 H 90.939 l 10.675,-11.5 h 27.753 z"
       style="fill:none;stroke:#000000;stroke-width:5.54px"
       id="path232" /></g><g
     transform="matrix(0.495994,0.845784,-0.845784,0.495994,173.165,-38.5787)"
     id="g238"><path
       d="m 92.438,93.919 c 4.737,-6.887 8.93,-14.64 12.344,-23.091 16.485,-40.812 12.576,-78.546 -11.651,-93.14 -0.669,-0.403 -1.454,-0.558 -2.192,-0.798 27.975,0.565 50.573,36.08 50.573,79.743 0,13.464 -2.149,26.154 -5.943,37.286 z"
       style="fill:#bfbfbf"
       id="path236" /></g><g
     transform="translate(-3)"
     id="g242"><path
       d="m 179.757,82.311 15.75,26.858 -0.052,0.031 c -11.388,6.678 -23.186,11.154 -34.484,13.467 l -21.392,-36.48 c 8.174,0.59 16.811,0.292 25.652,-1.013 5.03,-0.742 9.883,-1.702 14.526,-2.863 z"
       style="fill:#8c8c8c"
       id="path240" /></g><g
     transform="matrix(0.495994,0.845784,-0.845784,0.495994,173.165,-38.5787)"
     id="g246"><path
       d="m 92.438,93.919 c 4.737,-6.887 8.93,-14.64 12.344,-23.091 16.485,-40.812 12.576,-78.546 -11.651,-93.14 -0.669,-0.403 -1.454,-0.558 -2.192,-0.798 27.975,0.565 50.573,36.08 50.573,79.743 0,13.464 -2.149,26.154 -5.943,37.286 z"
       style="fill:none;stroke:#000000;stroke-width:7.65px"
       id="path244" /></g><g
     transform="matrix(0.495994,0.845784,-0.845784,0.495994,173.165,-38.5787)"
     id="g250"><path
       d="M 84.383,93.919 C 80.806,51.682 68.933,16.581 52.999,-1.288 c 0.498,-0.017 0.999,-0.026 1.501,-0.026 31.183,0 56.5,32.755 56.5,73.099 0,7.714 -0.926,15.15 -2.641,22.134 z"
       style="fill:#bfbfbf"
       id="path248" /></g><g
     transform="translate(-2,1)"
     id="g254"><path
       d="m 135.584,79.374 c 20.264,-14.31 26.133,-16.636 30.959,-13.523 l 12.426,14.231 c -0.423,3.553 -0.516,4.407 -11.463,10.826 -6.524,3.826 -13.273,6.732 -20.031,8.745 z"
       style="fill:#8c8c8c"
       id="path252" /></g><g
     transform="matrix(0.495994,0.845784,-0.845784,0.495994,173.165,-38.5787)"
     id="g258"><path
       d="M 84.383,93.919 C 80.806,51.682 68.933,16.581 52.999,-1.288 c 0.498,-0.017 0.999,-0.026 1.501,-0.026 31.183,0 56.5,32.755 56.5,73.099 0,7.714 -0.926,15.15 -2.641,22.134 z"
       style="fill:none;stroke:#000000;stroke-width:7.65px"
       id="path256" /></g><g
     transform="matrix(0.495994,0.845784,-0.845784,0.495994,173.165,-38.5787)"
     id="g262"><path
       d="m 142.793,79.569 c 1.134,-3.125 0.674,-6.607 -1.234,-9.33 -1.908,-2.723 -5.024,-4.344 -8.348,-4.344 -9.905,-0.005 -23.236,-0.005 -33.814,-0.005 -4.328,0 -8.454,1.834 -11.354,5.046 -2.901,3.213 -4.305,7.504 -3.864,11.81 1.963,20.092 1.166,39.98 -2.18,59.673 H 102.4 c 3.329,-12.699 3.524,-20.84 15.828,-26.036 10.673,-4.507 18.623,-20.24 24.565,-36.814 z"
       style="fill:#bfbfbf;stroke:#000000;stroke-width:7.65px"
       id="path260" /></g><g
     transform="matrix(0.319996,0.545667,-0.845784,0.495994,188.523,-12.3898)"
     id="g266"><path
       d="M 113.826,142.419 75.637,128.544 c -6.535,8.722 -8.974,17.972 0,28.695 v 55.534 c -4.85,5.859 -4.45,11.342 0,16.534 v 10.487 c 0,4.139 5.209,7.5 11.625,7.5 6.416,0 11.625,-3.361 11.625,-7.5 1.237,-32.458 2.159,-64.917 14.939,-97.375 z"
       style="fill:#0fa954"
       id="path264" /></g><path
     d="m 104.3,109.416 0.191,10.944 c -31.542,9.126 -59.29,24.722 -87.138,40.146 -3.501,2.053 -8.01,0.878 -10.063,-2.623 -1.806,-3.079 -1.115,-6.938 1.46,-9.22 2.317,2.057 5.786,2.495 8.603,0.843 27.793,-15.394 55.485,-30.958 86.947,-40.09 z"
     style="fill:#0e7c3f"
     id="path268" /><g
     transform="matrix(0.319996,0.545667,-0.845784,0.495994,188.523,-12.3898)"
     id="g272"><path
       d="M 113.826,142.419 75.637,128.544 c -6.535,8.722 -8.974,17.972 0,28.695 v 55.534 c -4.85,5.859 -4.45,11.342 0,16.534 v 10.487 c 0,4.139 5.209,7.5 11.625,7.5 6.416,0 11.625,-3.361 11.625,-7.5 1.237,-32.458 2.159,-64.917 14.939,-97.375 z"
       style="fill:none;stroke:#000000;stroke-width:9.09px"
       id="path270" /></g></g></svg>
