<?xml version="1.0" encoding="UTF-8" standalone="no"?>
<!-- Generator: Adobe Illustrator 23.0.3, SVG Export Plug-In . SVG Version: 6.00 Build 0)  -->

<svg
   xmlns:dc="http://purl.org/dc/elements/1.1/"
   xmlns:cc="http://creativecommons.org/ns#"
   xmlns:rdf="http://www.w3.org/1999/02/22-rdf-syntax-ns#"
   xmlns:svg="http://www.w3.org/2000/svg"
   xmlns="http://www.w3.org/2000/svg"
   xmlns:sodipodi="http://sodipodi.sourceforge.net/DTD/sodipodi-0.dtd"
   xmlns:inkscape="http://www.inkscape.org/namespaces/inkscape"
   version="1.1"
   x="0px"
   y="0px"
   viewBox="0 0 1080 1080"
   style="enable-background:new 0 0 1080 1080;"
   xml:space="preserve"
   id="svg402"
   sodipodi:docname="twitter.svg"
   inkscape:version="0.92.2 5c3e80d, 2017-08-06"><metadata
     id="metadata408"><rdf:RDF><cc:Work
         rdf:about=""><dc:format>image/svg+xml</dc:format><dc:type
           rdf:resource="http://purl.org/dc/dcmitype/StillImage" /><dc:title></dc:title></cc:Work></rdf:RDF></metadata><defs
     id="defs406"><clipPath
       clipPathUnits="userSpaceOnUse"
       id="clipPath16"><path
         d="M 0,38 38,38 38,0 0,0 0,38 Z"
         id="path18" /></clipPath><clipPath
       clipPathUnits="userSpaceOnUse"
       id="clipPath16-7"><path
         d="M 0,38 38,38 38,0 0,0 0,38 Z"
         id="path18-9" /></clipPath></defs><sodipodi:namedview
     pagecolor="#ffffff"
     bordercolor="#666666"
     borderopacity="1"
     objecttolerance="10"
     gridtolerance="10"
     guidetolerance="10"
     inkscape:pageopacity="0"
     inkscape:pageshadow="2"
     inkscape:window-width="1434"
     inkscape:window-height="1051"
     id="namedview404"
     showgrid="false"
     inkscape:zoom="0.71759259"
     inkscape:cx="538.60645"
     inkscape:cy="540"
     inkscape:window-x="0"
     inkscape:window-y="0"
     inkscape:window-maximized="0"
     inkscape:current-layer="svg402" /><style
     type="text/css"
     id="style306">
	.st0{display:none;}
	.st1{display:inline;fill:#516D51;}
	.st2{fill:#56BC58;}
	.st3{display:inline;}
	.st4{fill:#FFFFFF;}
</style><rect
     y="0"
     x="0"
     id="rect308"
     height="1080"
     width="1080" /><g
     id="Layer_10" /><g
     id="Layer_11"
     class="st0"><circle
       class="st1"
       cx="540"
       cy="540"
       r="540"
       id="circle312" /></g><g
     id="Layer_3"
     class="st0"><g
       class="st3"
       id="g392"><path
         d="M308.1,525.4c-21.9,0-34-11.4-34-32.2v-61.9c0-20.8,12.1-32.2,34-32.2h27.4v19.1h-29.1c-6.4,0-11.3,4.3-11.3,9.9v68.5    c0,5.6,4.8,9.9,11.3,9.9h29.1v19.1H308.1z"
         id="path344" /><path
         d="M308.1,522.4c-19.8,0-31-9.6-31-29.2v-61.9c0-19.6,11.2-29.2,31-29.2h24.4v13.1h-26.1c-8.6,0-14.3,6-14.3,12.9v68.5    c0,6.9,5.7,12.9,14.3,12.9h26.1v13.1H308.1z"
         id="path346" /><path
         d="M394.2,525.4c-21.9,0-34-11.4-34-32.2v-61.9c0-20.8,12.1-32.2,34-32.2h6.9c21.9,0,34,11.4,34,32.2v61.9    c0,20.8-12.1,32.2-34,32.2H394.2z M392.5,418.1c-6.4,0-11.3,4.3-11.3,9.9v68.5c0,5.6,4.8,9.9,11.3,9.9h10.3    c6.4,0,11.3-4.3,11.3-9.9V428c0-5.6-4.8-9.9-11.3-9.9H392.5z"
         id="path348" /><path
         d="M401.1,522.4h-6.9c-19.8,0-31-9.6-31-29.2v-61.9c0-19.6,11.2-29.2,31-29.2h6.9c19.8,0,31,9.6,31,29.2v61.9    C432.1,512.8,420.9,522.4,401.1,522.4z M417.1,428c0-6.9-5.7-12.9-14.3-12.9h-10.3c-8.6,0-14.3,6-14.3,12.9v68.5    c0,6.9,5.7,12.9,14.3,12.9h10.3c8.6,0,14.3-6,14.3-12.9V428z"
         id="path350" /><path
         d="M455.2,525.4V399h36.4c23.1,0,34.3,9.8,34.3,29.8v66.4c0,21.2-9.6,30.2-32.2,30.2H455.2z M495.2,506.5    c7.2,0,9.7-2.5,9.7-9.6v-69.7c0-5.8-3.7-9.4-9.6-9.4h-19.2v88.6H495.2z"
         id="path352" /><path
         d="M493.7,522.4h-35.4V402h33.4c19.8,0,31.3,7.1,31.3,26.8v66.4C522.9,515,514.3,522.4,493.7,522.4z M507.9,427.3    c0-7.6-5.2-12.4-12.6-12.4h-22.2v94.6h22c8.8,0,12.7-3.8,12.7-12.6V427.3z"
         id="path354" /><polygon
         points="557.4,525.4 557.4,506.8 572.9,506.8 572.9,417.6 557.4,417.6 557.4,399 609.3,399 609.3,417.6 593.8,417.6     593.8,506.8 609.3,506.8 609.3,525.4   "
         id="polygon356" /><path
         d="M560.4,522.4v-12.6h15.5v-95.3h-15.5V402h45.9v12.6h-15.5v95.3h15.5v12.6H560.4z"
         id="path358" /><polygon
         points="682.1,525.4 660.4,439 660.4,525.4 640.5,525.4 640.5,399 670.2,399 692.1,485.5 692.1,399 712,399 712,525.4       "
         id="polygon360" /><path
         d="M684.4,522.4l-27-107.7v107.7h-13.9V402h24.4l27.2,107.7V402H709v120.4H684.4z"
         id="path362" /><path
         d="M769.9,525.4c-21.9,0-34-11.4-34-32.2v-61.9c0-20.8,12.1-32.2,34-32.2h27.3v19.1h-29c-6.4,0-11.3,4.3-11.3,9.9v68.5    c0,5.6,4.8,9.9,11.3,9.9H782V475h-15v-18.9h35.2v69.3H769.9z"
         id="path364" /><path
         d="M769.9,522.4c-19.8,0-31-9.6-31-29.2v-61.9c0-19.6,11.2-29.2,31-29.2h24.3v13.1h-26c-8.6,0-14.3,6-14.3,12.9v68.5    c0,6.9,5.7,12.9,14.3,12.9H785V472h-15v-12.9h29.2v63.3H769.9z"
         id="path366" /><path
         d="M305.5,731.8c-21.9,0-34-11.4-34-32.2v-61.9c0-20.8,12.1-32.2,34-32.2h27.3v19.1h-29c-6.4,0-11.3,4.3-11.3,9.9v68.5    c0,5.6,4.8,9.9,11.3,9.9h13.9v-31.3h-15v-18.9h35.2v69.3H305.5z"
         id="path368" /><path
         d="M305.5,728.8c-19.8,0-31-9.6-31-29.2v-61.9c0-19.6,11.2-29.2,31-29.2h24.3v13.1h-26c-8.6,0-14.3,6-14.3,12.9v68.5    c0,6.9,5.7,12.9,14.3,12.9h16.9v-37.3h-15v-12.9h29.2v63.3H305.5z"
         id="path370" /><path
         d="M418.6,731.8l-6.5-30.4h-28.7l-6.7,30.4h-21.5l30.5-126.4h24.5l30,126.4H418.6z M408.1,682.5l-10.4-48.3l-10.2,48.3H408.1    z"
         id="path372" /><path
         d="M421.1,728.8l-6.5-30.4H381l-6.7,30.4H359L388,608.4h19.8l28.6,120.4H421.1z M397.7,619.8l-13.9,65.7h28L397.7,619.8z"
         id="path374" /><path
         d="M508.2,731.8L486,681.9h-11.9v49.9h-21V605.4h35.3c21.6,0,32.6,10,32.6,29.8v16.5c0,13-4.9,21.7-14.4,25.9l24.5,54.1    H508.2z M490.6,663c7.1,0,9.6-2.4,9.6-9.6v-19.8c0-6.9-2.5-9.4-9.6-9.4h-16.4V663H490.6z"
         id="path376" /><path
         d="M510.2,728.8L488,678.9h-16.9v49.9h-15V608.4h32.3c18.9,0,29.6,7.9,29.6,26.8v16.5c0,13.6-5.7,21.2-15.5,24.3l23.9,52.8    H510.2z M503.1,633.7c0-8.8-4-12.4-12.6-12.4h-19.4V666h19.4c8.8,0,12.6-3.8,12.6-12.6V633.7z"
         id="path378" /><path
         d="M548.1,731.8V605.4h36.4c23.1,0,34.3,9.8,34.3,29.8v66.4c0,21.2-9.6,30.2-32.2,30.2H548.1z M588.1,712.9    c7.2,0,9.7-2.5,9.7-9.6v-69.7c0-5.8-3.7-9.4-9.6-9.4h-19.2v88.6H588.1z"
         id="path380" /><path
         d="M586.5,728.8h-35.4V608.4h33.4c19.8,0,31.3,7.1,31.3,26.8v66.4C615.8,721.4,607.2,728.8,586.5,728.8z M600.8,633.7    c0-7.6-5.2-12.4-12.6-12.4h-22.2v94.6h22c8.8,0,12.7-3.8,12.7-12.6V633.7z"
         id="path382" /><polygon
         points="644.6,731.8 644.6,605.4 708,605.4 708,624 665.6,624 665.6,657.3 703.7,657.3 703.7,675.9 665.6,675.9     665.6,713.2 708,713.2 708,731.8   "
         id="polygon384" /><path
         d="M647.6,728.8V608.4H705V621h-42.5v39.4h38.2v12.6h-38.2v43.3H705v12.6H647.6z"
         id="path386" /><polygon
         points="774.9,731.8 753.3,645.4 753.3,731.8 733.3,731.8 733.3,605.4 763.1,605.4 784.9,691.9 784.9,605.4 804.9,605.4     804.9,731.8   "
         id="polygon388" /><path
         d="M777.3,728.8l-27-107.7v107.7h-13.9V608.4h24.4l27.2,107.7V608.4h13.9v120.4H777.3z"
         id="path390" /></g></g><g
     id="Layer_1"><g
       id="g399"><path
         class="st4"
         d="M142.1,515c60.4,0,68.9-33.2,68.9-62.9c0-23.8-3.4-47.6-6.8-71.4c-3.4-23.8-6.8-46.8-6.8-70.6    c0-78.2,51-111.4,123.3-111.4h17.9v46.8h-15.3c-50.2,0-67.2,27.2-67.2,73.1c0,19.6,2.5,40,5.9,60.4c3.4,21.2,6,41.7,6,64.6    c0.9,54.4-23,81.6-61.2,91.8v1.7c38.2,9.4,62.1,38.3,61.2,92.7c0,22.9-2.5,44.2-6,64.6c-3.4,21.2-5.9,40.8-5.9,61.2    c0,47.6,19.5,74,67.2,74h15.3v46.8h-17.9c-70.6,0-123.3-30.6-123.3-116.5c0-23,3.4-46.8,6.8-69.7s6.8-45.9,6.8-68.9    c0-26.4-8.5-62.9-68.9-62.9V515z"
         id="path395" /><path
         class="st4"
         d="M937.7,558.4c-60.4,0-68.9,36.5-68.9,62.9c0,22.9,3.4,45.9,6.8,68.9c3.4,23,6.8,46.8,6.8,69.7    c0,85.9-53.6,116.5-123.3,116.5h-17.9v-46.8h14.5c47.6-0.8,68-26.3,68-74c0-20.4-3.4-40-6-61.2c-3.4-20.4-6.8-41.7-6.8-64.6    c0-54.4,23.8-83.3,61.2-92.7v-1.7C834.8,525.2,811,498,811,443.6c0-22.9,3.4-43.4,6.8-64.6c2.5-20.4,6-40.8,6-60.4    c0-45.9-17.9-72.3-67.2-73.1h-15.3v-46.8h17c72.3,0,124.1,33.1,124.1,111.4c0,23.8-3.4,46.8-6.8,70.6c-3.4,23.8-6.8,47.6-6.8,71.4    c0,29.8,8.5,62.9,68.9,62.9V558.4z"
         id="path397" /></g></g><g
     id="layer1"
     transform="translate(-212.58594,-310.51257)"><path
       d="m 665.81381,1040.5867 c 176.52318,0 273.05006,-146.24038 273.05006,-273.05003 0,-4.15372 -0.0846,-8.28871 -0.27092,-12.405 18.73844,-13.54631 35.02584,-30.45115 47.87054,-49.6948 -17.19485,7.6432 -35.69943,12.78857 -55.11146,15.10866 19.8143,-11.88112 35.02585,-30.67569 42.20128,-53.08139 -18.542,10.99236 -39.07664,18.98171 -60.93974,23.29444 -17.51292,-18.65426 -42.44451,-30.32018 -70.05168,-30.32018 -52.99718,0 -95.97495,42.97777 -95.97495,95.95622 0,7.53092 0.84196,14.85606 2.48849,21.88179 -79.76238,-4.01337 -150.48767,-42.20127 -197.81558,-100.26896 -8.24194,14.18248 -12.99436,30.65696 -12.99436,48.23537 0,33.29515 16.94224,62.68917 42.70644,79.88402 -15.74478,-0.48646 -30.53535,-4.80858 -43.46424,-12.00272 -0.0141,0.40265 -0.0141,0.7952 -0.0141,1.22554 0,46.47659 33.07999,85.28194 76.99327,94.07581 -8.06418,2.19848 -16.54935,3.37723 -25.3058,3.37723 -6.17443,0 -12.18982,-0.60771 -18.03681,-1.7307 12.21787,38.13177 47.64598,65.87926 89.65083,66.65577 -32.8461,25.74547 -74.22413,41.07867 -119.19453,41.07867 -7.73677,0 -15.37995,-0.4401 -22.89216,-1.3285 42.47259,27.22366 92.90645,43.10876 147.11041,43.10876"
       style="fill:#1da1f2;fill-opacity:1;fill-rule:nonzero;stroke:none;stroke-width:1.56964779"
       id="path3611"
       inkscape:connector-curvature="0" /></g></svg>