<?xml version="1.0" encoding="utf-8"?>
<!-- Generator: Adobe Illustrator 23.0.3, SVG Export Plug-In . SVG Version: 6.00 Build 0)  -->
<svg version="1.1" xmlns="http://www.w3.org/2000/svg" xmlns:xlink="http://www.w3.org/1999/xlink" x="0px" y="0px"
	 viewBox="0 0 1080 1080" style="enable-background:new 0 0 1080 1080;" xml:space="preserve">
<style type="text/css">
	.st0{display:none;}
	.st1{display:inline;fill:#516D51;}
	.st2{fill:#56BC58;}
	.st3{display:inline;}
	.st4{fill:#FFFFFF;}
</style>
<g id="Layer_9">
	<rect width="1080" height="1080"/>
</g>
<g id="Layer_10">
</g>
<g id="Layer_11" class="st0">
	<circle class="st1" cx="540" cy="540" r="540"/>
</g>
<g id="Layer_7">
	<g>
		<g>
			<path class="st2" d="M334.1,830c5.6-51.4,13-102.6,17.1-154.2c1.9-23.5,3.6-47.3,2.1-70.9c-2-30.9-8.3-62.2-21.5-90.4
				c-16.2-34.6-45.7-61.5-83.3-70.7c-15-3.7-21.4,19.5-6.4,23.1c30.2,7.4,52.8,27.9,66.6,55c12.7,24.8,18.4,54.1,20.4,81.6
				c1.6,22.4,0,45.1-1.7,67.5c-2.1,27.5-5.1,54.8-8.3,82.2c-3,25.6-6.4,51.2-9.2,76.8c-0.7,6.5,6,12,12,12
				C329.2,842,333.4,836.5,334.1,830L334.1,830z"/>
		</g>
	</g>
	<g>
		<path class="st2" d="M254.3,455.8c-7.1-23.7-32-39.2-56.7-40.2c-24.7-0.9-48.6,10.6-67.5,26.6c-18.9,16-33.5,36.3-48,56.4
			c23.5,8.1,49,10.6,73.6,7c9.7-1.4,19.4-3.8,28.1-8.4c5.9-3.2,11.2-7.3,16.5-11.5c14.7-11.5,29.3-23,44-34.5"/>
		<g>
			<path class="st2" d="M262.9,453.4c-8.9-28.3-37.3-46-66.2-46.8c-33.3-0.9-63.5,18.1-85.8,41.3c-13.6,14.2-25.1,30.2-36.6,46.1
				c-3.6,5,0.4,11.5,5.4,13.2c28.8,9.8,61.6,12.3,91.1,4.5c15.5-4.1,27.3-13,39.7-22.7c13.3-10.5,26.7-21,40-31.4
				c3.8-3,3.1-9.6,0-12.7c-3.8-3.8-8.9-3-12.7,0c-12,9.5-24.1,18.9-36.1,28.4c-11.2,8.8-21.7,17.5-35.7,21.2
				c-26.6,7-55.7,4.3-81.6-4.5c1.8,4.4,3.6,8.8,5.4,13.2c16.8-23.2,34.2-47.8,58.7-63.5c21.1-13.6,48.4-20.9,72-9
				c11.5,5.8,21.1,15.1,25,27.6C249.1,469.2,266.4,464.5,262.9,453.4L262.9,453.4z"/>
		</g>
	</g>
	<g>
		<g>
			<path class="st2" d="M341.8,538.7c-1.8-9.3-6.2-18.2-9.4-27c-1.4-3.8-2.9-7.7-3.5-11.8c0.3,2-0.1-2.1-0.2-2.7
				c-0.1-1.8-0.3-3.5-0.4-5.3c-0.2-3.8-0.3-7.6-0.3-11.4c0.2-28.8,7.5-57.4,21.3-82.8c8.5-15.8,19.1-30.3,29.6-44.8
				c3.8-5.3,0.9-13.4-4.3-16.4c-6.1-3.5-12.6-1-16.4,4.3c-19.2,26.6-37,53.5-46.2,85.3c-4.4,15.4-7,31.4-7.7,47.4
				c-0.6,13-0.8,27.2,3.3,39.7c3.5,10.6,8.9,20.9,11.1,31.9c1.2,6.4,8.9,10,14.8,8.4C340.1,551.6,343.1,545.1,341.8,538.7
				L341.8,538.7z"/>
		</g>
	</g>
	<g>
		<path class="st2" d="M323.1,405.7c-7.9-21.6-7.3-57.2,0.3-79c5.8-16.4,14.2-32.4,25-45.5c10.3-12.6,23.3-22.8,36.2-32.3
			c12-8.9,25.7-14.6,39.3-20.2c20.3-8.5,40.6-16.9,60.9-25.4c-6.1,83.7-52.4,162.8-119.9,204.8c-11.5,7.2-25.6,13.4-37.8,7.7"/>
		<g>
			<path class="st2" d="M331.8,403.4c-10.5-29.6-6-64.6,8-92.1c16.9-33.3,47.5-57.2,81.4-71.6c22-9.3,44.1-18.4,66.1-27.5
				c-3.8-2.9-7.6-5.8-11.4-8.7c-5.3,69.5-39.2,137-93.3,181.2c-7,5.7-14.4,11-22.2,15.8c-7.7,4.8-19.3,11.7-28.7,7.7
				c-4.5-1.9-9.6-1.3-12.3,3.2c-2.2,3.8-1.3,10.4,3.2,12.3c21.4,9.1,41.9-3.6,59.1-15.9c15.5-11.2,29.8-24,42.5-38.4
				c25.6-29,44.8-63.3,56.8-100c6.9-21.4,11.1-43.6,12.9-66c0.4-5.3-6.2-10.9-11.4-8.7c-21.1,8.8-42.3,17.6-63.4,26.4
				c-9.7,4.1-19.4,8.1-28.6,13.4c-8.8,5-16.8,11.3-24.6,17.6c-30.4,24.4-52,58.9-56.5,98c-2.2,19-1.5,39.9,5,58.1
				C318.3,419,335.7,414.3,331.8,403.4L331.8,403.4z"/>
		</g>
	</g>
</g>
<g id="Layer_3" class="st0">
	<g class="st3">
		<path d="M308.1,525.4c-21.9,0-34-11.4-34-32.2v-61.9c0-20.8,12.1-32.2,34-32.2h27.4v19.1h-29.1c-6.4,0-11.3,4.3-11.3,9.9v68.5
			c0,5.6,4.8,9.9,11.3,9.9h29.1v19.1H308.1z"/>
		<path d="M308.1,522.4c-19.8,0-31-9.6-31-29.2v-61.9c0-19.6,11.2-29.2,31-29.2h24.4v13.1h-26.1c-8.6,0-14.3,6-14.3,12.9v68.5
			c0,6.9,5.7,12.9,14.3,12.9h26.1v13.1H308.1z"/>
		<path d="M394.2,525.4c-21.9,0-34-11.4-34-32.2v-61.9c0-20.8,12.1-32.2,34-32.2h6.9c21.9,0,34,11.4,34,32.2v61.9
			c0,20.8-12.1,32.2-34,32.2H394.2z M392.5,418.1c-6.4,0-11.3,4.3-11.3,9.9v68.5c0,5.6,4.8,9.9,11.3,9.9h10.3
			c6.4,0,11.3-4.3,11.3-9.9V428c0-5.6-4.8-9.9-11.3-9.9H392.5z"/>
		<path d="M401.1,522.4h-6.9c-19.8,0-31-9.6-31-29.2v-61.9c0-19.6,11.2-29.2,31-29.2h6.9c19.8,0,31,9.6,31,29.2v61.9
			C432.1,512.8,420.9,522.4,401.1,522.4z M417.1,428c0-6.9-5.7-12.9-14.3-12.9h-10.3c-8.6,0-14.3,6-14.3,12.9v68.5
			c0,6.9,5.7,12.9,14.3,12.9h10.3c8.6,0,14.3-6,14.3-12.9V428z"/>
		<path d="M455.2,525.4V399h36.4c23.1,0,34.3,9.8,34.3,29.8v66.4c0,21.2-9.6,30.2-32.2,30.2H455.2z M495.2,506.5
			c7.2,0,9.7-2.5,9.7-9.6v-69.7c0-5.8-3.7-9.4-9.6-9.4h-19.2v88.6H495.2z"/>
		<path d="M493.7,522.4h-35.4V402h33.4c19.8,0,31.3,7.1,31.3,26.8v66.4C522.9,515,514.3,522.4,493.7,522.4z M507.9,427.3
			c0-7.6-5.2-12.4-12.6-12.4h-22.2v94.6h22c8.8,0,12.7-3.8,12.7-12.6V427.3z"/>
		<polygon points="557.4,525.4 557.4,506.8 572.9,506.8 572.9,417.6 557.4,417.6 557.4,399 609.3,399 609.3,417.6 593.8,417.6 
			593.8,506.8 609.3,506.8 609.3,525.4 		"/>
		<path d="M560.4,522.4v-12.6h15.5v-95.3h-15.5V402h45.9v12.6h-15.5v95.3h15.5v12.6H560.4z"/>
		<polygon points="682.1,525.4 660.4,439 660.4,525.4 640.5,525.4 640.5,399 670.2,399 692.1,485.5 692.1,399 712,399 712,525.4 		
			"/>
		<path d="M684.4,522.4l-27-107.7v107.7h-13.9V402h24.4l27.2,107.7V402H709v120.4H684.4z"/>
		<path d="M769.9,525.4c-21.9,0-34-11.4-34-32.2v-61.9c0-20.8,12.1-32.2,34-32.2h27.3v19.1h-29c-6.4,0-11.3,4.3-11.3,9.9v68.5
			c0,5.6,4.8,9.9,11.3,9.9H782V475h-15v-18.9h35.2v69.3H769.9z"/>
		<path d="M769.9,522.4c-19.8,0-31-9.6-31-29.2v-61.9c0-19.6,11.2-29.2,31-29.2h24.3v13.1h-26c-8.6,0-14.3,6-14.3,12.9v68.5
			c0,6.9,5.7,12.9,14.3,12.9H785V472h-15v-12.9h29.2v63.3H769.9z"/>
		<path d="M305.5,731.8c-21.9,0-34-11.4-34-32.2v-61.9c0-20.8,12.1-32.2,34-32.2h27.3v19.1h-29c-6.4,0-11.3,4.3-11.3,9.9v68.5
			c0,5.6,4.8,9.9,11.3,9.9h13.9v-31.3h-15v-18.9h35.2v69.3H305.5z"/>
		<path d="M305.5,728.8c-19.8,0-31-9.6-31-29.2v-61.9c0-19.6,11.2-29.2,31-29.2h24.3v13.1h-26c-8.6,0-14.3,6-14.3,12.9v68.5
			c0,6.9,5.7,12.9,14.3,12.9h16.9v-37.3h-15v-12.9h29.2v63.3H305.5z"/>
		<path d="M418.6,731.8l-6.5-30.4h-28.7l-6.7,30.4h-21.5l30.5-126.4h24.5l30,126.4H418.6z M408.1,682.5l-10.4-48.3l-10.2,48.3H408.1
			z"/>
		<path d="M421.1,728.8l-6.5-30.4H381l-6.7,30.4H359L388,608.4h19.8l28.6,120.4H421.1z M397.7,619.8l-13.9,65.7h28L397.7,619.8z"/>
		<path d="M508.2,731.8L486,681.9h-11.9v49.9h-21V605.4h35.3c21.6,0,32.6,10,32.6,29.8v16.5c0,13-4.9,21.7-14.4,25.9l24.5,54.1
			H508.2z M490.6,663c7.1,0,9.6-2.4,9.6-9.6v-19.8c0-6.9-2.5-9.4-9.6-9.4h-16.4V663H490.6z"/>
		<path d="M510.2,728.8L488,678.9h-16.9v49.9h-15V608.4h32.3c18.9,0,29.6,7.9,29.6,26.8v16.5c0,13.6-5.7,21.2-15.5,24.3l23.9,52.8
			H510.2z M503.1,633.7c0-8.8-4-12.4-12.6-12.4h-19.4V666h19.4c8.8,0,12.6-3.8,12.6-12.6V633.7z"/>
		<path d="M548.1,731.8V605.4h36.4c23.1,0,34.3,9.8,34.3,29.8v66.4c0,21.2-9.6,30.2-32.2,30.2H548.1z M588.1,712.9
			c7.2,0,9.7-2.5,9.7-9.6v-69.7c0-5.8-3.7-9.4-9.6-9.4h-19.2v88.6H588.1z"/>
		<path d="M586.5,728.8h-35.4V608.4h33.4c19.8,0,31.3,7.1,31.3,26.8v66.4C615.8,721.4,607.2,728.8,586.5,728.8z M600.8,633.7
			c0-7.6-5.2-12.4-12.6-12.4h-22.2v94.6h22c8.8,0,12.7-3.8,12.7-12.6V633.7z"/>
		<polygon points="644.6,731.8 644.6,605.4 708,605.4 708,624 665.6,624 665.6,657.3 703.7,657.3 703.7,675.9 665.6,675.9 
			665.6,713.2 708,713.2 708,731.8 		"/>
		<path d="M647.6,728.8V608.4H705V621h-42.5v39.4h38.2v12.6h-38.2v43.3H705v12.6H647.6z"/>
		<polygon points="774.9,731.8 753.3,645.4 753.3,731.8 733.3,731.8 733.3,605.4 763.1,605.4 784.9,691.9 784.9,605.4 804.9,605.4 
			804.9,731.8 		"/>
		<path d="M777.3,728.8l-27-107.7v107.7h-13.9V608.4h24.4l27.2,107.7V608.4h13.9v120.4H777.3z"/>
	</g>
</g>
<g id="Layer_1">
	<g>
		<path class="st4" d="M612.9,439.8v110.1h105.9V578H612.9v111h-30V578H477v-28.1h105.9V439.8H612.9z"/>
		<path class="st4" d="M892.1,439.8v110.1H998V578H892.1v111h-30V578H756.3v-28.1h105.9V439.8H892.1z"/>
	</g>
</g>
</svg>
