<?xml version="1.0" encoding="utf-8"?>
<!-- Generator: Adobe Illustrator 23.0.3, SVG Export Plug-In . SVG Version: 6.00 Build 0)  -->
<svg version="1.1" xmlns="http://www.w3.org/2000/svg" xmlns:xlink="http://www.w3.org/1999/xlink" x="0px" y="0px"
	 viewBox="0 0 1080 1080" style="enable-background:new 0 0 1080 1080;" xml:space="preserve">
<style type="text/css">
	.st0{display:none;}
	.st1{display:inline;fill:#516D51;}
	.st2{fill:#56BC58;}
	.st3{display:inline;}
</style>
<g id="Layer_9">
	<rect width="1080" height="1080"/>
</g>
<g id="Layer_10">
</g>
<g id="Layer_11" class="st0">
	<circle class="st1" cx="540" cy="540" r="540"/>
</g>
<g id="Layer_7">
	<g>
		<g>
			<path class="st2" d="M575.4,935c7.1-64.6,16.3-129,21.5-193.8c2.4-29.6,4.6-59.7,2.7-89.4c-2.4-38.2-10.1-76.9-26.3-111.8
				c-20-43.2-56.6-77-103.4-88.4c-15-3.6-21.4,19.5-6.4,23.1c38.4,9.3,67.6,35.5,85.4,69.9c16.4,31.8,23.8,69.1,26.5,104.4
				c2.1,28.3,0.1,57-2,85.3c-2.6,34.5-6.4,68.9-10.4,103.3c-3.8,32.4-8.1,64.8-11.6,97.3c-0.7,6.5,6,12,12,12
				C570.4,947,574.6,941.5,575.4,935L575.4,935z"/>
		</g>
	</g>
	<g>
		<path class="st2" d="M477.9,463.6c-8.9-29.9-40.3-49.4-71.4-50.6s-61.2,13.3-85,33.5c-23.7,20.2-42.1,45.8-60.4,71
			c29.6,10.2,61.7,13.3,92.7,8.8c12.3-1.8,24.5-4.7,35.4-10.6c7.4-4,14.1-9.2,20.7-14.4c18.5-14.5,36.9-29,55.4-43.5"/>
		<g>
			<path class="st2" d="M486.6,461.3c-10.9-35.1-46.8-56.9-82.6-57.3c-41.4-0.5-78.5,23.5-106,52.5c-16.5,17.4-30.6,37-44.6,56.4
				c-3.6,5,0.4,11.5,5.4,13.2c36.1,12.3,77.7,15.6,114.8,5.3c19.1-5.3,33.6-16.6,48.9-28.6c16.4-12.9,32.8-25.8,49.2-38.6
				c3.8-3,3.1-9.6,0-12.7c-3.8-3.8-8.9-3-12.7,0c-15.4,12.1-30.8,24.2-46.1,36.2c-13.8,10.8-26.9,21.7-44.1,26.4
				c-34.1,9.4-72,6-105.2-5.3c1.8,4.4,3.6,8.8,5.4,13.2c21.6-29.8,43.8-61.2,75.4-81.2c27.5-17.5,62.7-26.3,93.1-10.6
				c14.7,7.6,26.9,19.8,31.9,35.8C472.7,477.1,490.1,472.4,486.6,461.3L486.6,461.3z"/>
		</g>
	</g>
	<g>
		<g>
			<path class="st2" d="M585.2,568.9c-2.2-11.7-7.8-22.9-11.8-34c-1-2.7-1.9-5.3-2.7-8c-0.3-1.1-0.7-2.1-0.9-3.2
				c-0.3-1.1-0.9-5.4-0.5-1.2c-0.9-9.2-1.5-18.4-1.4-27.6c0.3-37,9.7-73.8,27.4-106.3c10.7-19.7,23.9-37.9,37-56
				c3.8-5.3,0.9-13.4-4.3-16.4c-6.1-3.5-12.6-1-16.4,4.3c-24.1,33.3-46.5,67.1-58,107c-5.5,19.3-8.7,39.4-9.5,59.4
				c-0.7,16.1-0.8,33.5,4.3,49c4.4,13.1,11.1,25.9,13.7,39.5c1.2,6.4,8.9,10,14.8,8.4C583.5,581.8,586.5,575.3,585.2,568.9
				L585.2,568.9z"/>
		</g>
	</g>
	<g>
		<path class="st2" d="M564.6,400.6c-10-27.2-9.2-72.1,0.4-99.5c7.2-20.6,17.9-40.7,31.5-57.3c13-15.8,29.4-28.7,45.6-40.7
			c15.1-11.1,32.4-18.4,49.5-25.5c25.6-10.7,51.2-21.3,76.7-32c-7.7,105.4-66,205-151,257.9c-14.5,9.1-32.2,16.9-47.6,9.7"/>
		<g>
			<path class="st2" d="M573.3,398.2c-6.7-18.7-7.7-39.3-6.4-59c1.4-20.9,7.3-40.4,16.8-59.1c21.7-42.5,60.9-72.8,104.2-91.2
				c27.6-11.7,55.2-23,82.9-34.5c-3.8-2.9-7.6-5.8-11.4-8.7C752.7,234,709.7,319.7,641,375.8c-9.4,7.7-19.3,14.7-29.6,21
				c-10.3,6.2-24.8,14.1-37.1,8.8c-4.5-1.9-9.7-1.3-12.3,3.2c-2.2,3.8-1.3,10.4,3.2,12.3c26.3,11.4,52.3-5.7,73.2-20.8
				c19.3-14,37.1-30.1,52.8-48.1c31.8-36.4,55.8-79.3,70.5-125.3c8.4-26.3,13.6-53.6,15.7-81.2c0.4-5.3-6.2-10.9-11.4-8.7
				c-26.1,10.9-52.3,21.7-78.4,32.6c-12.3,5.1-24.7,10.3-36.4,16.9c-10.9,6.2-20.9,14-30.7,21.8c-37.8,30.2-65.1,72.9-70.8,121.6
				c-2.8,23.9-2,50.1,6.2,73c1.6,4.6,6.1,7.6,11.1,6.3C571.4,408.1,574.9,402.8,573.3,398.2L573.3,398.2z"/>
		</g>
	</g>
</g>
<g id="Layer_3" class="st0">
	<g class="st3">
		<path d="M308.1,525.4c-21.9,0-34-11.4-34-32.2v-61.9c0-20.8,12.1-32.2,34-32.2h27.4v19.1h-29.1c-6.4,0-11.3,4.3-11.3,9.9v68.5
			c0,5.6,4.8,9.9,11.3,9.9h29.1v19.1H308.1z"/>
		<path d="M308.1,522.4c-19.8,0-31-9.6-31-29.2v-61.9c0-19.6,11.2-29.2,31-29.2h24.4v13.1h-26.1c-8.6,0-14.3,6-14.3,12.9v68.5
			c0,6.9,5.7,12.9,14.3,12.9h26.1v13.1H308.1z"/>
		<path d="M394.2,525.4c-21.9,0-34-11.4-34-32.2v-61.9c0-20.8,12.1-32.2,34-32.2h6.9c21.9,0,34,11.4,34,32.2v61.9
			c0,20.8-12.1,32.2-34,32.2H394.2z M392.5,418.1c-6.4,0-11.3,4.3-11.3,9.9v68.5c0,5.6,4.8,9.9,11.3,9.9h10.3
			c6.4,0,11.3-4.3,11.3-9.9V428c0-5.6-4.8-9.9-11.3-9.9H392.5z"/>
		<path d="M401.1,522.4h-6.9c-19.8,0-31-9.6-31-29.2v-61.9c0-19.6,11.2-29.2,31-29.2h6.9c19.8,0,31,9.6,31,29.2v61.9
			C432.1,512.8,420.9,522.4,401.1,522.4z M417.1,428c0-6.9-5.7-12.9-14.3-12.9h-10.3c-8.6,0-14.3,6-14.3,12.9v68.5
			c0,6.9,5.7,12.9,14.3,12.9h10.3c8.6,0,14.3-6,14.3-12.9V428z"/>
		<path d="M455.2,525.4V399h36.4c23.1,0,34.3,9.8,34.3,29.8v66.4c0,21.2-9.6,30.2-32.2,30.2H455.2z M495.2,506.5
			c7.2,0,9.7-2.5,9.7-9.6v-69.7c0-5.8-3.7-9.4-9.6-9.4h-19.2v88.6H495.2z"/>
		<path d="M493.7,522.4h-35.4V402h33.4c19.8,0,31.3,7.1,31.3,26.8v66.4C522.9,515,514.3,522.4,493.7,522.4z M507.9,427.3
			c0-7.6-5.2-12.4-12.6-12.4h-22.2v94.6h22c8.8,0,12.7-3.8,12.7-12.6V427.3z"/>
		<polygon points="557.4,525.4 557.4,506.8 572.9,506.8 572.9,417.6 557.4,417.6 557.4,399 609.3,399 609.3,417.6 593.8,417.6 
			593.8,506.8 609.3,506.8 609.3,525.4 		"/>
		<path d="M560.4,522.4v-12.6h15.5v-95.3h-15.5V402h45.9v12.6h-15.5v95.3h15.5v12.6H560.4z"/>
		<polygon points="682.1,525.4 660.4,439 660.4,525.4 640.5,525.4 640.5,399 670.2,399 692.1,485.5 692.1,399 712,399 712,525.4 		
			"/>
		<path d="M684.4,522.4l-27-107.7v107.7h-13.9V402h24.4l27.2,107.7V402H709v120.4H684.4z"/>
		<path d="M769.9,525.4c-21.9,0-34-11.4-34-32.2v-61.9c0-20.8,12.1-32.2,34-32.2h27.3v19.1h-29c-6.4,0-11.3,4.3-11.3,9.9v68.5
			c0,5.6,4.8,9.9,11.3,9.9H782V475h-15v-18.9h35.2v69.3H769.9z"/>
		<path d="M769.9,522.4c-19.8,0-31-9.6-31-29.2v-61.9c0-19.6,11.2-29.2,31-29.2h24.3v13.1h-26c-8.6,0-14.3,6-14.3,12.9v68.5
			c0,6.9,5.7,12.9,14.3,12.9H785V472h-15v-12.9h29.2v63.3H769.9z"/>
		<path d="M305.5,731.8c-21.9,0-34-11.4-34-32.2v-61.9c0-20.8,12.1-32.2,34-32.2h27.3v19.1h-29c-6.4,0-11.3,4.3-11.3,9.9v68.5
			c0,5.6,4.8,9.9,11.3,9.9h13.9v-31.3h-15v-18.9h35.2v69.3H305.5z"/>
		<path d="M305.5,728.8c-19.8,0-31-9.6-31-29.2v-61.9c0-19.6,11.2-29.2,31-29.2h24.3v13.1h-26c-8.6,0-14.3,6-14.3,12.9v68.5
			c0,6.9,5.7,12.9,14.3,12.9h16.9v-37.3h-15v-12.9h29.2v63.3H305.5z"/>
		<path d="M418.6,731.8l-6.5-30.4h-28.7l-6.7,30.4h-21.5l30.5-126.4h24.5l30,126.4H418.6z M408.1,682.5l-10.4-48.3l-10.2,48.3H408.1
			z"/>
		<path d="M421.1,728.8l-6.5-30.4H381l-6.7,30.4H359L388,608.4h19.8l28.6,120.4H421.1z M397.7,619.8l-13.9,65.7h28L397.7,619.8z"/>
		<path d="M508.2,731.8L486,681.9h-11.9v49.9h-21V605.4h35.3c21.6,0,32.6,10,32.6,29.8v16.5c0,13-4.9,21.7-14.4,25.9l24.5,54.1
			H508.2z M490.6,663c7.1,0,9.6-2.4,9.6-9.6v-19.8c0-6.9-2.5-9.4-9.6-9.4h-16.4V663H490.6z"/>
		<path d="M510.2,728.8L488,678.9h-16.9v49.9h-15V608.4h32.3c18.9,0,29.6,7.9,29.6,26.8v16.5c0,13.6-5.7,21.2-15.5,24.3l23.9,52.8
			H510.2z M503.1,633.7c0-8.8-4-12.4-12.6-12.4h-19.4V666h19.4c8.8,0,12.6-3.8,12.6-12.6V633.7z"/>
		<path d="M548.1,731.8V605.4h36.4c23.1,0,34.3,9.8,34.3,29.8v66.4c0,21.2-9.6,30.2-32.2,30.2H548.1z M588.1,712.9
			c7.2,0,9.7-2.5,9.7-9.6v-69.7c0-5.8-3.7-9.4-9.6-9.4h-19.2v88.6H588.1z"/>
		<path d="M586.5,728.8h-35.4V608.4h33.4c19.8,0,31.3,7.1,31.3,26.8v66.4C615.8,721.4,607.2,728.8,586.5,728.8z M600.8,633.7
			c0-7.6-5.2-12.4-12.6-12.4h-22.2v94.6h22c8.8,0,12.7-3.8,12.7-12.6V633.7z"/>
		<polygon points="644.6,731.8 644.6,605.4 708,605.4 708,624 665.6,624 665.6,657.3 703.7,657.3 703.7,675.9 665.6,675.9 
			665.6,713.2 708,713.2 708,731.8 		"/>
		<path d="M647.6,728.8V608.4H705V621h-42.5v39.4h38.2v12.6h-38.2v43.3H705v12.6H647.6z"/>
		<polygon points="774.9,731.8 753.3,645.4 753.3,731.8 733.3,731.8 733.3,605.4 763.1,605.4 784.9,691.9 784.9,605.4 804.9,605.4 
			804.9,731.8 		"/>
		<path d="M777.3,728.8l-27-107.7v107.7h-13.9V608.4h24.4l27.2,107.7V608.4h13.9v120.4H777.3z"/>
	</g>
</g>
<g id="Layer_1">
</g>
</svg>
